<svg xmlns="http://www.w3.org/2000/svg" viewBox="0 0 900 350"><g fill-rule="evenodd" clip-rule="evenodd"><path fill="#C4C4C2" d="M361.833 85.5l49.334-56.667L899.833.167 891.5 284.5l-474-47z"/><path fill="#DDDDDC" d="M.167 0L396.5 26.833l4.667 2.667.426 223.087-393.76 55.58z"/><path fill="#D0CECD" d="M827.25 182.25l-4.417-4.083"/></g><g fill-rule="evenodd" clip-rule="evenodd"><path fill="#ECECEB" d="M590.5 56.5L834 48.25l-6.75 134-237.5-12.5.75-113.25"/><path fill="#D0CECD" d="M628.167 98L604 103.167l21.333 3.5L654.5 116.5l32.167-16.167-27.834 4.5z"/><path fill="#B5B5B6" d="M629.167 167.167l39-26 9-10.667 43-7.333 34 22.666 39.666-8 37.334 13 .333 39-246.667-17z"/><path fill="#A5A4A4" d="M821 182l1.833-3.833L768.25 162l-45.5 9.25 1.25 5.25zM662.25 141.25l-50 20.75 7.75 11.5 104 3-9.75-28.5z"/><path fill="#D0CECD" d="M712.5 148l-26.25 11 49.25 23.25L768.25 162 734 142.25z"/><path fill="#A5A4A4" d="M732.75 144.25l7.25 11 28.25 6.75 25.583-24.167-20.583-1.333z"/><path fill="#D0CECD" d="M663.25 153.5l-19.417-22-36.333 6.75-3.25 21.75 22.583 6.5L648 153.75z"/><path fill="#B5B5B6" d="M691.5 141l-5.25 18-38.25-5.25-4.167-22.25 33.334-1zM699 136l-12.75 23 53.75-3.75 33.25-18.75-48-22z"/><path fill="#5EC0D9" d="M595.583 61.917l.584 4.583-.417 64.75L573 131l6.25-70.25z"/><path fill="#3AA0BA" d="M618.833 48.833L585.5 57.5l6.767 7.243 3.9 1.757 237.666-6.667-5.333-22z"/><path fill="#75CFE3" d="M583.5 43.833l-33 79.667 63.667 56.667L844.5 196.833l2.333-165.667L583.5 43.833zm239.333 134.334l-196-11.667-40.667-36 .667-2 .702-47.619 1.09-16.006 2.208-5.208 233-9.167-1 127.667z"/><path fill="#D0CECD" d="M686.25 159l39-44.5-48.083 16z"/><path fill="#DDDDDC" d="M604 103.167l22.5-8.5 31.167 5.666h29l-27.334 8.334-29-7.834z"/><path fill="#D0CECD" d="M776.333 89l15.834 3.833 22.5-5.666L792 102.333l-35.333-9.166-25.5-5.167 37.333-1.167z"/><path fill="#DDDDDC" d="M731.167 88l.817-.059L766 85.5l26.667 3 22-1.333-23.834 8.666-25.833-7z"/></g><g fill-rule="evenodd" clip-rule="evenodd"><path opacity=".1" fill="#010101" d="M326.833 310.5l-80.66-14.139-35.006 6.806L168.5 300.5 50 238 6.5 260.75l1.333 47.417 7.667 23.666 99.667 9 80.333-20.166 60.667 8z"/><path fill="#75CFE3" d="M189.833 253.5l10.334-29.333L124.333 214 20.167 234.167 119 310.5z"/><path fill="#5EC0D9" d="M63.5 263.5l41.667 64.667L204 306l-3.833-81.833L105.5 243.5z"/><path fill="#3AA0BA" d="M20.167 234.167L105.5 243.5l-.333 84.667L20.5 313.5z"/><path fill="#75CFE3" d="M119.5 253.5l-.5 57 71.5-14.667-1-56.333z"/><path fill="#5EC0D9" d="M112.5 279.5l81.667-18.333.333 11.666-81.333 17.667z"/><ellipse fill="#5EC0D9" cx="157.125" cy="258.563" rx="3.375" ry="4.688"/><ellipse fill="#5EC0D9" cx="158" cy="292" rx="3.375" ry="4.688"/></g><g fill-rule="evenodd" clip-rule="evenodd"><path fill="#D0CECD" d="M125.833 174.667l-16.666 1.833 11.166 49 42-5.333L147 171.5z"/><path fill="#ECECEB" d="M130.874 225.375l-6.601-21.42.196-8.111-3.855-3.666-.355-4.935 6.262 2.384 6.888-2.857 2.039-3.77 4.682-1.595-2.109 6.358.996 1.988 8.144 6.466-.524 1.853 1.768 2.001.56.995-4.584 4.217-1.201 3.928 7.276 10.007z"/><path fill="#C4C4C2" d="M122.666 189.877l3.45 1.336-.715 2.982zM139.017 189.751l1.113-8.346-3.196 6.419zM131.743 199.14l3.977-4.634.281 4.478zM143.398 198.519l3.763-2.302 1.244 3.854zM131.649 206.224l4.849.81 2.175-2.798 5.708 1.047 6.075 13.935z"/><path fill="#737475" d="M105.75 216.875l-2 5.75 11.625-2.25-3.75-9.5z"/><path fill="#9B9FA0" d="M110.125 207.125l-8.5 13.375 2.125 2.125 9-10z"/><path fill="#858686" d="M120 175l-13.75-2-5.417 5.167 11.834 50.166 7.083 1.417-9.083-53.25z"/><path fill="#9B9FA0" d="M149.75 167l-43.5 6 13.5 56.75 44.5-8-14.5-54.75zm-34.5 11.75l30.583-4.417 10.333 43.75L124 222.5l-8.75-43.75z"/></g><path fill-rule="evenodd" clip-rule="evenodd" fill="#4BB0C1" d="M436.5 81.167l-2.167 6.75 1 37.416 2.729.896-.229-41.062z"/><path fill-rule="evenodd" clip-rule="evenodd" fill="#75CFE3" d="M443.667 35.25l.25-20.75-3.75.333.583 19.667z"/><path fill-rule="evenodd" clip-rule="evenodd" fill="#858686" d="M411.667 29l-.334 5-5.666 81-7 .833 2.833-85.5z"/><path fill-rule="evenodd" clip-rule="evenodd" fill="#747474" d="M440.5 7.333l3.417 7.167L411.333 34l-7.666-2.5 27.208-21.542z"/><path fill-rule="evenodd" clip-rule="evenodd" fill="#858686" d="M434 9.583l1.5-9.5 11 5.75-2.583 8.667-6.75-3.333z"/><path fill-rule="evenodd" clip-rule="evenodd" fill="#8F8F8F" d="M399 42.083l-2.5-15.5 39-26.5 2 11.084L403.667 31.5z"/><path fill-rule="evenodd" clip-rule="evenodd" fill="#8F8F8F" d="M403 123.583l-6.5-10.416V26.583l7.167 4.917-1.167 84.167z"/><path fill-rule="evenodd" clip-rule="evenodd" fill="#F6CBB4" d="M462.75 92.375l.5-7.5-6.625-15.375-18.375 17.667 12 12.333z"/><path fill-rule="evenodd" clip-rule="evenodd" fill="#ECECEB" d="M472.375 103.5l-3.875-14-5.25-4.625-13 14.625 4.5 6.25z"/><path fill-rule="evenodd" clip-rule="evenodd" fill="#72CBCC" d="M495.5 117.833l-2.75-6.333-24.25-22-13.75 16.25 22 27.5z"/><path fill-rule="evenodd" clip-rule="evenodd" fill="#349496" d="M541.25 124.25L520 114.5l-27.25-3-16 21.75 55.75 21.25z"/><path fill-rule="evenodd" clip-rule="evenodd" fill="#29788C" d="M549.842 276.131l15.262 8.297-10.276 4.436-22.546-.354v-4.082z"/><path fill-rule="evenodd" clip-rule="evenodd" fill="#3AA0BA" d="M577.16 279.455l8.906 9.409v3.99h-31.031l-.207-3.99z"/><path fill-rule="evenodd" clip-rule="evenodd" fill="#505354" d="M519.476 210.947l36.202 4.884 1.147 9.975 11.126 24.758-3.671 17.354.204 5.574-17.342-7.437z"/><path fill-rule="evenodd" clip-rule="evenodd" fill="#707274" d="M519.476 210.947l36.202 4.884 13.484 9.923-8.08 24.098-24.778-5.385z"/><path fill-rule="evenodd" clip-rule="evenodd" fill="#3AA0BA" d="M547.142 266.055l-14.86 18.373h32.822l-.824-16.51z"/><path fill-rule="evenodd" clip-rule="evenodd" fill="#72CBCC" d="M599.001 124.977l27.975 41.201-20.112 7.027-11.576-7.6z"/><path fill-rule="evenodd" clip-rule="evenodd" fill="#349496" d="M626.976 166.178l-28.057 30.247-3.631-30.82z"/><path fill-rule="evenodd" clip-rule="evenodd" fill="#4EA9AA" d="M539.852 115.186L520 114.5l-.524 96.447 38.65 6.568 40.875-6.158-.34-61.415.34-24.965-21.758-8.965-28.19 1.728z"/><path fill-rule="evenodd" clip-rule="evenodd" fill="#DDDDDC" d="M568.872 131.499l-.639-6.932-10.653-8.989-10.599 5.523-3.466 10.58-2.032 87.289 23.557-7.567z"/><path fill-rule="evenodd" clip-rule="evenodd" fill="#72CBCC" d="M543.515 131.681l-2.346-16.466-1.317-.029-12.102 25.939 7.689 4.174-7.814 10.826 14.857 17.3zM577.243 116.012l-4.766-.105-3.605 15.592-1.976 41.07L583 159.375l-7.966-15.218 7.466-1.657z"/><path fill-rule="evenodd" clip-rule="evenodd" fill="#FEE5D6" d="M517.995 26.983l-5.832 68.178 22.11 3.023 5.579 17.002 37.391.826 15.024-51.269L583.75 32.5z"/><path fill-rule="evenodd" clip-rule="evenodd" fill="#F6CBB4" d="M534.963 74.96l16.371 9.233-6.187 1.142-19.464-2.189-4.902-2.38z"/><path fill-rule="evenodd" clip-rule="evenodd" fill="#505354" d="M534.558 72.414l3.713.357 13.063 11.422-30.553-3.427z"/><path fill-rule="evenodd" clip-rule="evenodd" fill="#F6CBB4" d="M584.843 38.924l-16.981-8.287-9.813 70.292-12.711 2.609-5.486 11.648 37.391.826 15.024-51.269z"/><path fill-rule="evenodd" clip-rule="evenodd" fill="#C3937D" d="M558.049 100.929l10.489 2.672-10.958 11.977-17.728-.392-5.579-17.002z"/><path fill-rule="evenodd" clip-rule="evenodd" fill="#737475" d="M517.995 26.983L535.5 32l41.743 2.603-26.68-17.665-6.876-2.578z"/><path fill-rule="evenodd" clip-rule="evenodd" fill="#505354" d="M538.521 32.854l12.312.979 26.41.77L568 23.625l-17.437-6.687L535.5 32z"/><path fill-rule="evenodd" clip-rule="evenodd" fill="#747575" d="M538.521 32.854l11.312 2.729 27.41-.98 7.6 4.321 6.125-6.594L568 23.625z"/><path fill-rule="evenodd" clip-rule="evenodd" fill="#505354" d="M577.243 34.603l-5.993 33.772 5.25 2.125 1.767-9.645 14 3.888-1.299-32.413z"/><path fill-rule="evenodd" clip-rule="evenodd" fill="#C3937D" d="M579.046 79.95l5.679 10.533 2.81-9.602zM578.806 74.287l2.611-8.008 5.388 1.305z"/><path fill-rule="evenodd" clip-rule="evenodd" fill="#ECECEB" d="M539.852 115.186l3.663 16.495 14.048-16.091zM557.563 115.59l11.309 15.909 8.371-15.487z"/><path fill-rule="evenodd" clip-rule="evenodd" fill="#505354" d="M519.476 210.947l29.311 11.664 13.571 5.397 18.456-2.237 18.187-14.414z"/><path fill-rule="evenodd" clip-rule="evenodd" fill="#707274" d="M556.825 225.806l7.455 42.112 6.867 8.43 14.919-1.107 12.935-63.884z"/><path fill-rule="evenodd" clip-rule="evenodd" fill="#8F8F8F" d="M556.825 225.806l4.257 24.046 30.423-1.473 7.496-37.022z"/><path fill-rule="evenodd" clip-rule="evenodd" fill="#5EC0D9" d="M586.066 275.241v13.623h-31.238l9.452-20.946z"/><path fill-rule="evenodd" clip-rule="evenodd" fill="#C3937D" d="M534.775 63.715l-1.763 2.51-.947 3.227 4.092 6.1L541 70.716l-5.124-11.987 5.007-3.09-6.108-4.497z"/><path fill-rule="evenodd" clip-rule="evenodd" fill="#F6CBB4" d="M520.887 49.416l12.125 16.809-.947 3.227 5.69-4.491L541 70.716l16.336-16.57-13.89-1.721-5.691 7.239-2.98-8.522z"/><path fill-rule="evenodd" clip-rule="evenodd" fill="#505354" d="M543.446 52.425l1.511-3.735 12.379 5.456zM535.058 47.262l-.283 3.88-13.888-1.726z"/><path fill-rule="evenodd" clip-rule="evenodd" fill="#FFF1E9" d="M534.775 51.142l-2.71 18.31L541 70.716l2.446-18.291z"/><path fill="#2B2C2B" d="M530.414 57.027c.438 1.909-.755 3.817-2.67 4.251-1.91.438-3.818-.75-4.257-2.664-.434-1.909.761-3.819 2.67-4.251 1.908-.44 3.817.749 4.257 2.664M554.109 60.136c.438 1.914-.761 3.817-2.67 4.257-1.916.438-3.818-.755-4.257-2.671-.44-1.909.755-3.811 2.67-4.25 1.909-.439 3.817.756 4.257 2.664"/><g fill-rule="evenodd" clip-rule="evenodd"><path fill="#5EC0D9" d="M426.289 49.186l2.017-11.025 4.571-5.647 21.243 1.479 6.409 5.468z"/><path fill="#3AA0BA" d="M426.827 47.572l-1.613-6.677 7.663-8.381-2.285 6.409z"/><path fill="#5EC0D9" d="M426.417 77l7.916 10.917 21.084-3.5 4.753-5.866-23.528-11.171z"/><path fill="#3AA0BA" d="M427.768 73.194l-4.435 6.473 5 5.416 6 2.834-3.416-5.667z"/><path fill="#5EC0D9" d="M440.272 65.225l-9.355 17.025-7.584-2.583 1.881-38.772 5.378-1.972z"/><path fill="#75CFE3" d="M430.917 82.25l29.253-3.699.359-39.09-29.937-.538z"/><path fill="#5EC0D9" d="M435.75 75.417l20.417-1.75-.25-28.75-19.584-.25z"/></g><path fill-rule="evenodd" clip-rule="evenodd" fill="#FEE5D6" d="M450.417 68.167l9.75 5 3.083 11.708-6.458 7.25L451 85.083l3-6.833-6.75-6.083z"/><g fill-rule="evenodd" clip-rule="evenodd"><path opacity=".1" fill="#010101" d="M891.5 284.5l-96.75-9.5-41.5-4.25L487 262l-216 33.75 307.5 53.75 180.61-52.074L852 311.5z"/><path fill="#737475" d="M737.834 275.078l.5 16.125-24.5-3.375-17.5-18.25 43-.25z"/><path fill="#4F5353" d="M333.25 279L348 301.5l24.75-4.5 3.25-34-42.75 15"/><path fill="#8F8F8F" d="M548.5 277l32.334 54.328L603.5 325.5l1.334-14.672 128.75-34.5 4.75 14.875 17.5-4.875-1.5-24.5z"/><path fill="#737475" d="M340.5 252L323 263.5l-.5 34 25.5 4 4.5-19.5 199.334 28.328 1.25 17.5 27.75 3.5 2-29.5z"/><path fill="#9B9FA0" d="M543.334 265.328l39.5 36.5 171.5-40 20.77-18.718z"/><path fill="#8F8F8F" d="M311 232.5l-21.184 5.781L323 263.5l259.834 38.328 4.5-15.5z"/><path fill="#4EA9AA" d="M552.481 241.828l34.853 44.5 187.77-43.218-2.179-20.5z"/><path fill="#349496" d="M435.841 204.667l-146.569 13.114.544 20.5 297.518 48.047 1.634-21z"/><path fill="#72CBCC" d="M289.272 217.781l299.696 47.547 183.957-42.718L478.5 188.5z"/></g><g><path opacity=".1" fill-rule="evenodd" clip-rule="evenodd" fill="#010101" d="M383 206.75L344 215l103.25 18 36.25 11.25 77 16.75 34.5 5.75 11.5-5.5 46.75-18.5 20.25-27.25z"/><path fill-rule="evenodd" clip-rule="evenodd" fill="#308FA6" d="M457.125 218.75l2.625 10.125 23.75 15.375 51.25 4.5 53.75 24.75 85-58-6-5z"/><path fill-rule="evenodd" clip-rule="evenodd" fill="#3AA0BA" d="M596.5 212.5l-46.333 32.333 44.333 17.334 73-51.667z"/><path fill-rule="evenodd" clip-rule="evenodd" fill="#5EC0D9" d="M560.833 185.833L599 171.667l68.5 38.833-117.333 34.333-14.417-2.583z"/><path fill-rule="evenodd" clip-rule="evenodd" fill="#3AA0BA" d="M524.833 192.833l21-9.666 53.167-11.5-63.25 70.583-29.25-2.75z"/><path fill-rule="evenodd" clip-rule="evenodd" fill="#308FA6" d="M419.5 200.5l8 13.25 2.708 6.667-58.625-4.334L371 191z"/><path fill-rule="evenodd" clip-rule="evenodd" fill="#3AA0BA" d="M404.073 169.242l-14.167 11.106L371 191l56.5 22.75 12.75-6L438 174z"/><path fill-rule="evenodd" clip-rule="evenodd" fill="#ECECEB" d="M430.167 207.833l-1.334-12.333 28.5-21.333 41.5 3-48 40z"/><path fill-rule="evenodd" clip-rule="evenodd" fill="#FEE5D6" d="M402.572 122.915l14.52-5.706 7.365-2.352 45.348 38.176-9.467 14.593-15.967 17.558-34.76-23.161-14.149-12.411 10.498-12.018z"/><path fill-rule="evenodd" clip-rule="evenodd" fill="#F6CBB4" d="M456.352 176.825l1.635-2.915-12.803 11.061-49.722-35.359.689 14.791 7.922 4.839 4.515 3.002 2.063 2.929 4.789 3.829-4.238.461-6.121-2.634.876 5.621 2.372 2.557 3.472 1.218 5.632 2.474-1.572 1.845 6.029 4.053 9.626 2.577 27.19-.274z"/><path fill-rule="evenodd" clip-rule="evenodd" fill="#484848" d="M438.062 126.229l-10.031-17.085-6.5 5.047z"/><path fill-rule="evenodd" clip-rule="evenodd" fill="#F6CBB4" d="M415.145 154.958l6.48-1.743 17.549 1.328-7.404-8.098-7.188-1.817-3.662-.998-4.108 2.537zM428.145 135.227l2.365 2.737 2.306 4.072 5.68 2.725-3.494-16.103-6.291 3.941z"/><path fill-rule="evenodd" clip-rule="evenodd" fill="#FFF1E9" d="M430.51 137.964l15.056 9.137-2.064 5.323-4.328 2.119-14.592-9.915z"/><path fill-rule="evenodd" clip-rule="evenodd" fill="#F6CBB4" d="M412.8 178.766l3.333 1.617-2.656 10.424-11.255-5.352 1.399-10.626z"/><path fill-rule="evenodd" clip-rule="evenodd" fill="#908F8F" d="M424.164 116.077l3.867-6.933-31.496 3.969 2.223 23.996z"/><path fill-rule="evenodd" clip-rule="evenodd" fill="#747474" d="M418.745 125.513l5.419-9.436-27.629-2.964-14.511 14.636-4.32 18.19 6.181 1.144 27.687-14.594z"/><path fill-rule="evenodd" clip-rule="evenodd" fill="#4F5353" d="M418.745 125.513l-36.721 2.236-10.911 13.082 12.772 6.252 30.578-13.081z"/><path fill-rule="evenodd" clip-rule="evenodd" fill="#747474" d="M414.463 134.002l-43.35 6.829 2.405 27.014 13.221-8.952 8.723-9.281z"/><path fill-rule="evenodd" clip-rule="evenodd" fill="#4F5353" d="M373.518 167.845l16.388 12.503 7.076-3.606-.831-12.339-.689-14.791z"/><path fill-rule="evenodd" clip-rule="evenodd" fill="#484848" d="M395.873 157.627l21.661 17.112-1.401 5.644-11.521-4.451-2.39 9.523-12.316-5.107z"/><path fill-rule="evenodd" clip-rule="evenodd" fill="#C3937D" d="M405.29 183.258l1.073-3.324 5.09 2.718zM413.477 190.807l1.895-6.745 6.518 10.535zM445.566 147.101l-.917 5.822-5.47 1.614z"/><path fill="#2B2C2B" d="M436.267 134.378c.933 1.038.848 2.636-.19 3.57-1.038.933-2.636.848-3.57-.19-.933-1.038-.849-2.636.19-3.57 1.038-.933 2.636-.848 3.57.19zM423.255 150.198c.933 1.038.848 2.636-.19 3.57-1.038.933-2.636.848-3.57-.19-.933-1.038-.849-2.636.19-3.57 1.038-.933 2.637-.848 3.57.19z"/><path fill-rule="evenodd" clip-rule="evenodd" fill="#C3937D" d="M441.369 189.898l2.642-5.744 25.794-31.121-11.193 21.068.094 22.799z"/><path fill-rule="evenodd" clip-rule="evenodd" fill="#484848" d="M420.92 143.63l-4.259-1.178-1.516 12.506zM428.145 135.227l-2.92-2.628 9.777-3.941z"/><path fill="#C3937D" d="M439.417 163.105l12.051-14.438 5.457 9.55-7.219 7.503z"/><path fill="#FFF" d="M442.714 162.367l8.583-10.346 1.478 2.615-7.162 8.299z"/><path fill-rule="evenodd" clip-rule="evenodd" fill="#5EC0D9" d="M495 181.25l11-5.583 39.833 7.5L506.5 239.5l-20.667-2.833L462 215z"/><path fill-rule="evenodd" clip-rule="evenodd" fill="#308FA6" d="M490.167 169.833L463.5 206.5l18.5 12 14.75-46z"/><path fill-rule="evenodd" clip-rule="evenodd" fill="#3AA0BA" d="M496.75 172.5L470 210.125l12 8.375 24-42.833z"/><path fill-rule="evenodd" clip-rule="evenodd" fill="#9B9FA0" d="M481.5 206.75l-52-4.25-3.125 17.625 33.375 8.75z"/><path fill-rule="evenodd" clip-rule="evenodd" fill="#F5CBB3" d="M505 186.125l-.75-11.25 10.75-.312 9.083 4.479-3.708 5.771z"/><path fill-rule="evenodd" clip-rule="evenodd" fill="#FEE5D6" d="M498 202.125l-1.167-12.792 7.417-14.458 16.125 9.938-9.875 9.312z"/><path fill-rule="evenodd" clip-rule="evenodd" fill="#F5CBB3" d="M496.833 189.333l-37.083 39.542 26.083 7.792 24.667-42.542z"/></g><g><g fill-rule="evenodd" clip-rule="evenodd"><path fill="#F6CBB4" d="M259.437 276.14l11.515 18.987 6.304 1.221 2.933-2.777-1.422-15.403zM248.16 275.023l-1.987 21.338-7.977 2.631-1.778-3.589-7.149-22.321z"/><path fill="#2A788C" d="M280.189 293.571l8.729 8.051-8.392 9.326-10.219-1.417.645-14.404zM246.173 296.361l5.968 15.808-10.503 1.574-10.402-1.574 5.182-16.766z"/><path fill="#C3937D" d="M278.767 278.168l-15.604 4.116-3.726-6.144 9.665-.92zM229.269 273.082l18.381 7.423.51-5.482-9.039-1.941z"/><path fill="#4FA8A9" d="M223.651 149.798l-22.068 26.285-2.75 9.75 12.5 8 22.167-10.5zM264.098 143.587l7.733 3.474 15.336 15.272 9.5 6.834-14.167 17.666-25.5-11z"/><path fill="#73CBCC" d="M264.098 143.587l-8.661 22.112-12.178 5.21 12.442-9.341-16.202-19.804-15.848 8.034 5.377 30.025 4.472 14.844-11.298 5.591-9.652 20.904h24.269l27.279-4.876 7.306-9.965L258 194.5l20.767-18.224z"/><path fill="#369496" d="M229.028 179.823l-6.826 20.435 49.202 6.063 7.363-30.045zM264.098 216.286l-14.125 25.492-23.675 22.234-13.748-42.85z"/><path fill="#4FA8A9" d="M264.098 216.286l6.093 10.229 6.674 32.37v16.335l-47.596-2.138-2.971-9.07z"/><path fill="#369496" d="M229.269 273.082l47.596-14.197 1.902 19.283zM264.098 216.286l12.767 42.599-5.461-52.564z"/><path fill="#FFF" d="M264.098 143.587l-27.279-.647v31.551l18.618-8.792 20.634 4.568z"/><path fill="#505354" d="M310.763 77.079l13.21 14.694-17.387 13.604.381-14.623z"/><path fill="#73CBCC" d="M238.01 56.881l-4.999-6.629-3.903-15.662 60.479-9.032.735 15.61-2.362 11.324-27.394 6.189z"/><path fill="#93D3D4" d="M289.587 25.558l32.997 25.915-11.821 25.606-14.078-11.176-8.725-13.411z"/><path fill="#369496" d="M229.108 34.59l-5.619 32.988 9.197-4.314 5.324-6.383z"/><path fill="#2A788C" d="M289.258 31.02l-2.394.281-.548 6.477-5.734.637-.358 4.294 5.926-.542-.345 5.972 2.426-.137 2.091-6.834z"/><path fill="#338EA5" d="M289.258 31.02l2.192 1.954-.232 5.592 4.552 3.979-1.09 3.646-3.767-3.116-.487 6.37-2.195-1.443z"/><path fill="#FEE5D6" d="M310.763 77.079l-9.757 66.096-33.548-3.779-14.833 6.646-20.279-21.87-12.983-21.965 13.992-3.306 2.146 4.379 19.595-25.577 12.158-3.37 14.458-2.152z"/><path fill="#F6CBB4" d="M255.096 77.703l-8.209 59.918 20.488 1.796-7.332 4.329 1.723 7.754-6.329 14.199-18.604-22.532-9.561-23.194-.862-5.574-2.756-2.674-6.433-14.666 14.992-6.906 2.083 14.159 7.433-10.735zM300.844 92.291l-16.11 12.827-7.698 5.931-11.772-22.739z"/><path fill="#FFF1E9" d="M279.726 89.878l-2.69 21.171 6.859.924 2.615-21.358z"/><path fill="#C3937D" d="M283.895 111.973l-4.097 3.605-2.762-4.529zM267.458 139.396l-5.692 12.104-20.911-15.491zM232.806 108.999l-5.533 10.977-3.617-8.246zM230.803 106.333l-2.217-8.593-6.663 1.771z"/><path fill="#505354" d="M278.451 77.441l7.296-11.769 2.213-13.18-49.95 4.389-29.044 21.237 23.126.983 23.004-1.398 10.14-.114z"/><path fill="#2B2C2B" d="M255.096 77.703L234.62 105.97l-3.407-12.218-13.992 3.307-8.255-18.941z"/><path fill="#707274" d="M287.96 52.492l22.803 24.587-32.312.362z"/><path fill="#505354" d="M279.726 89.878l.573-4.69-15.035 3.122zM286.51 90.615l14.334 1.676-13.634-6.165z"/><path fill="#3B9FB9" d="M245.611 306.062h-7.741l-6.634 6.107v2.489h20.905v-2.489zM288.918 301.622l-11.249 7.909h-7.362v2.4h29.872v-5.422z"/><path fill="#2B2C2B" d="M274.642 99.364c-.477 1.718-2.256 2.724-3.974 2.247-1.718-.477-2.724-2.256-2.247-3.974.477-1.718 2.256-2.724 3.974-2.247 1.718.477 2.723 2.256 2.247 3.974zM294.89 101.636c-.477 1.718-2.256 2.724-3.974 2.247-1.718-.477-2.724-2.256-2.247-3.974.477-1.718 2.256-2.724 3.974-2.247 1.718.477 2.724 2.256 2.247 3.974z"/><path fill="#FFF" d="M277.833 121.125l-10.041-.292 10.833 9.084 10.833-6.5z"/><path fill="#227779" d="M265.936 120.184l13.356.233 12.179 2.759-3.888 1.532.292-1.005-9.167.422-9.312-2.521-.229.854z"/><path fill="#4FA8A9" d="M265.936 120.184l11.772 12.399 13.763-9.407-3.596.527-9.542 4.089-9-6.209z"/><path fill="#F6CBB4" d="M162.667 188.875l-4-7.667-12.417-1.083.667 9.667 12.5 4.5z"/><path fill="#C3927D" d="M168.333 178.875l-9.666 2.333.75 13.084 16.833-3.167 1.667-5.333z"/><path fill="#FEE5D6" d="M179.833 186.667l-4.583-6.709-5.333-3.833-10.834.333.167 3.5 7.167.5 5 5z"/><path fill="#C3927D" d="M306.25 162.5l7.75 4.875 14 .25-3.25-17z"/><path fill="#5EC0D9" d="M320.337 128.363l-4.587 45.057 36.558 2.967 4.317-45.057z"/><path fill="#ECECEB" d="M323.125 130.625l-5 40.75L351 173.167 353.875 133z"/><path opacity=".1" fill="#010101" d="M324.583 151l2.105 1-5.563 4.875-2.021 4.076-2.104-4.534z"/><path fill="#FEE5D6" d="M307.5 164.667l3.167-6 6.396-8.542 9.5-1 .125 2.875-6.125 2.375-1.459 6.576z"/><path fill="#F6CBB4" d="M310.667 158.667l-23.5 3.666-4.667 24.5 31.5-19.458z"/><path fill="#75CFE3" d="M333.042 127.958l.291 5.917 9.084.542 1.625-5.584z"/><path fill="#F6CBB4" d="M175.25 179.958l26.333-3.875 9.75 17.75-35.083-2.708z"/><path fill="#DDDDDC" d="M325.25 136.083l-.75 7.584 7.208.541.834-7.5zM335.125 137.292l15.792 1.291-.167 1.667L335 139zM334.458 142.792l15.792 1.291-.167 1.667-15.75-1.25zM328.031 147.969l21.719 1.531-.167 1.667-21.677-1.479zM327.594 154.281l21.719 1.532-.167 1.666L327.469 156zM326.844 160.219l21.719 1.531-.167 1.667-21.677-1.479z"/></g></g><g fill-rule="evenodd" clip-rule="evenodd" fill="#ECECEB"><path d="M99 18L14.5 57 4 109l54.5 44.5 94.5-3 46-58-45-61z"/><path d="M178.833 102.5l45.667 24-56-4z"/></g><g fill-rule="evenodd" clip-rule="evenodd"><path fill="#D0CECD" d="M81.999 47.583l-13.767 1.25-26.065-1.75L77.25 58.75l16.083-3.417 19.584-5.833z"/><path fill="#C4C4C2" d="M3.75 109.25l53.727-5.384L128.75 120l-104.417 6.667z"/><path fill="#D0CECD" d="M72.167 145.167l-24.625 1.166-23.209-19.666 50.167-24.5L114 102l-16.5 33.5z"/><path fill="#B0B0B0" d="M87.333 124l-14 6.5-25.791 15.833L58 155l38-.5 47.333-29.333z"/><path fill="#A3A1A1" d="M143.833 129.167l-21.458 1.333L96 154.5l57.75-1.75z"/><path fill="#C4C4C2" d="M145.333 126.167l-22.958 4.333H73.333l42.277-24.54 62.265-14.585z"/><path fill="#29788C" d="M54.532 69.26l-10.039 2.532 5.674 12.742 8.953-8.528z"/><path fill="#5EC0D9" d="M62.474 77.378l-1.07-7.29-6.349-5.016-10.562 6.72 14.627 4.214z"/><path fill="#29788C" d="M103.892 117.263l-2.379 2.574-.568 3.404 5.434.981 2.511-4.297-1.999-.531z"/><path fill="#308FA6" d="M102.146 110.194c-.025.012-.102.047-.215.096-.677.297-4.208 1.633-4.208 1.633l3.79 7.914 5.378-.443-.758-7.916-3.987-1.284z"/><path fill="#5EC0D9" d="M95.862 102.709l1.862 9.214 8.41-.444c.196-.01 5.893-8.967 5.893-8.967l-16.165.197z"/><path fill="#29788C" d="M58.459 117.37l3.578 4.408 5.296 5.889L57 127.583l.542-5.936z"/><path fill="#308FA6" d="M60.684 108.469l-.872 5.018 2.225 8.291-4.495-.131-6.46-10.211z"/><path fill="#5EC0D9" d="M71.027 105.022l-2.378.24-8.837 8.225-8.73-2.051 6.395-7.57 14.466-1.55z"/><path fill="#29788C" d="M77.29 118.702l2.794 4.539 3.499 7.426-10.25-.167 1.077-7.871z"/><path fill="#308FA6" d="M79.124 103.952l-1.31 10.474 2.27 8.815-5.674-.612c-.698-.785-7.244-9.512-7.244-9.512l11.958-9.165z"/><path fill="#3AA0BA" d="M62.452 89.027l-8.292-.173 3.317 15.012 11.172 1.396z"/><path fill="#308FA6" d="M81.567 79.777l-20.163-9.689-7.244 18.766 14.489 16.408 18.33-12.307z"/><path fill="#5EC0D9" d="M83.75 90.25l-5.413-2.968-9.688 17.98-1.483 7.854 10.648 1.31 6.635-8.031z"/><path fill="#308FA6" d="M109.325 121.145l-3.656.77-4.724 1.326 3.317 8.815 4.539-8.031z"/><path fill="#5EC0D9" d="M114.562 109.013l4.277 4.103-10.038 10.909-3.132-2.11 4.18-8.624z"/><path fill="#75CFE3" d="M109.239 99.152l-8.643 6.719 9.253 7.42 8.99-.175-3.229-7.156z"/><path fill="#3AA0BA" d="M110.023 94.876l-9.427 10.995-16.147.524-6.112-19.113 24.092-4.887z"/><path fill="#308FA6" d="M108.801 81.609l-6.197 8.029-2.008 16.233 15.014.089 13.791-11.697z"/><path fill="#75CFE3" d="M96.406 72.183l-15.449-8.641-19.553 6.546 16.933 17.194 24.267 2.356z"/><path fill="#5EC0D9" d="M120.149 73.144l-8.03-2.706-31.162-6.896 21.647 26.096 26.797 4.625z"/><path fill="#308FA6" d="M126.782 57.171l-8.161 4.277-6.502 8.99 17.282 23.825 6.426-15.83z"/><path fill="#3AA0BA" d="M128.746 39.977l-5.172.328-4.953 21.143 17.206 16.985-.644-28.092z"/><path fill="#308FA6" d="M135.277 54.438l.306-6.274-4.547-.785-.383 1.919z"/><path fill="#75CFE3" d="M129.822 37.167l6.455.417 8.724 4.984-.273 1.088.457.64.26 2.427-4.101.387-.743-.008.431.454-.602.856-4.847-.248-4.93 1.134-2.059-4.63z"/><path fill="#5EC0D9" d="M123.574 40.305l3.186-5.76 5.325-1.878-3.491 12.001z"/><path fill="#308FA6" d="M133.034 41.016l3.519-1.163-1.274 2.715zM137.688 45.226l3.656 1.884-.241.344-.673.958-3.074-2.575zM142.863 43.226l2.147-.568.175 1.638z"/><path fill="#B0B0B0" d="M177.875 91.375l-55.5 39.125 31.375 22.25 21.5-28.25 51 2.75-37-20.75L199 92.25z"/><path fill="#DDDDDC" d="M112.917 49.5l-28.21-4.833-18.393 1.5-24.147.916L76.5 54.667l13.167-4z"/><path fill="#D0CECD" d="M169.98 76.403l-7.504.922-14.208-1.291L161.738 82l14.701-2.952 10.394-1.231z"/><path fill="#DDDDDC" d="M186.833 77.817l-15.377-3.567-10.025 1.107-13.163.677 14.208 2.645 11.133-1.477z"/></g><g><g fill-rule="evenodd" clip-rule="evenodd"><path fill="#5EC0D9" d="M828.09 282.095l3.306 4.322 5.625-2.375 2.726-54.375-12.139-1.647z"/><path fill="#308FA6" d="M832.601 227.227l-1.205 59.19-7.901-.783-1.169-61.32z"/><path fill="#3AA0BA" d="M873.861 197.146l-2.266 93.158-7.441-.765-1.978-89.83z"/><path fill="#308FA6" d="M796.878 201.29l3.82 93.732 8.849-3.144 6.418-92.188z"/><path fill="#5EC0D9" d="M843.412 207.125l4.353 92.841 7.073-3.472 3.445-62.693 13.267-7.779.045 64.282 5.996-3.337 2.203-100.688-52.226 9.205 8.68 6.362z"/><path fill="#3AA0BA" d="M788.906 189.651l1.763 104.303 10.029 1.068 3.554-64.596 31.868 3.897 1.122 64.522 10.523 1.121 3.87-100.099z"/><path fill="#4EA9AA" d="M870.219 179.308l14.094-1.078-.675 9.248-32.003 12.389-11.497-15.58z"/><path fill="#349496" d="M827.737 183.16l-44.362.102-.083 9.321 68.343 7.284.454-11.026z"/><path fill="#72CBCC" d="M783.375 183.262l68.714 5.579 32.224-10.611-58.569-4.09z"/><path fill="#5EC0D9" d="M797.129 201.152l45.538 4.364-.306 22.879-45.299-5.617z"/><path fill="#3AA0BA" d="M793.327 209.809l52.178 6.058-.095 3.501-51.672-5.312zM819.772 208.127c.013 1.496-1.022 2.717-2.31 2.728-1.289.011-2.344-1.193-2.356-2.688s1.022-2.717 2.31-2.728c1.288-.011 2.343 1.192 2.356 2.688zM819.295 220.715c.013 1.496-1.022 2.717-2.31 2.728-1.289.011-2.344-1.193-2.356-2.688-.013-1.496 1.022-2.717 2.31-2.728 1.289-.012 2.344 1.192 2.356 2.688z"/><path fill="#2A8493" d="M859.98 205.432l12.148-4.666-4.002 9.597-8.354.05z"/><path fill="#3AA0BA" d="M867.002 207.977l4.706 2.231-12.089 4.29.153-4.085z"/><path fill="#308FA6" d="M872.128 200.766l-5.126 7.211 4.706 2.231z"/></g></g><g><g fill-rule="evenodd" clip-rule="evenodd"><path fill="#1F7678" d="M836.06 136.256l2.083 1.25.042 8.271-.209 8.354 3.375 2.041-1.916-17.875zM831.622 131.589l-.937-5.875 11.812-.625-2.937 11.25z"/><path fill="#349496" d="M835.997 135.339l6.5-10.25 2.563 6.563-5.688 6.75z"/><path fill="#1F7678" d="M849.185 150.172l-5.105-3.125-3.145 10.917 1.666 2.792 3.021-3.042 4.813-5.156z"/><path fill="#349496" d="M834.685 147.714l3.5-1.937 3.75 12.125-3 1.875-1.438-2.125-6.25-7.875z"/><path fill="#3AA0BA" d="M840.372 159.214l1.563-1.312 3.687-.188.313 2.875-6.25 3.5z"/><path fill="#308FA6" d="M838.997 163.902l-1.812-3.188.312-3.062 4.438.25.125 2.937z"/><path opacity=".1" fill="#2B2B2B" d="M822.935 180.839l18.125-3 17.25 4.25-19.125 3.375z"/><path fill="#5EC0D9" d="M840.06 164.839l2-4 3.875-.25 7.125 7.5-12.25 8.625z"/><path fill="#3AA0BA" d="M836.06 174.964l-7.5-6.375 8.625-7.875 4.875.125.5 8.875zM837.685 174.089l3.375 9.25 9.5-2.375 2.5-12.875-10.5 1.625z"/><path fill="#308FA6" d="M828.56 168.589l3.5 13.375 9 1.375 1.5-13.625z"/><path fill="#4EA9AA" d="M823.997 155.027l5.063-11.188 9.125 1.938z"/><path fill="#349496" d="M855.164 159.047l-2.584-15-8.5 3z"/><path fill="#4EA9AA" d="M839.372 138.402l-9.75-3.938 1.063-8.75z"/></g></g></svg>