<svg xmlns="http://www.w3.org/2000/svg" viewBox="0 0 900 350"><g fill-rule="evenodd" clip-rule="evenodd"><path fill="#B3B3B3" d="M424.5 39.5l-60-25L2.5.5l13 313 343-41.5z"/><path fill="#C4C4C2" d="M701.833 18.167l197.75-6.417L888.5 348.833l-187.667-50.666-140.248-69.579z"/><path fill="#DDDDDC" d="M363.5 51.167l-.25-36.667 338.583 3.667-1 280L364 272.5l5.167-201z"/></g><g fill-rule="evenodd" clip-rule="evenodd"><path fill="#5EC0D9" d="M700.846 25.563l.904 1.062-20.01 27.625-18.72-30.125 26.207-2.5z"/><path fill="#3AA0BA" d="M663.924 24.938l.903 1.062-20.01 27.625-18.72-30.125 26.208-2.5z"/><path fill="#5EC0D9" d="M627.001 25.063l.904 1.062-20.011 27.625-18.719-30.125 26.207-2.5z"/><path fill="#3AA0BA" d="M590.079 24.438l.903 1.062-20.01 27.625L552.252 23l26.208-2.5z"/><path fill="#5EC0D9" d="M553.027 24.021l.904 1.062-20.011 27.625-18.719-30.125 26.207-2.5z"/><path fill="#3AA0BA" d="M516.104 23.396l.904 1.062-20.011 27.625-18.719-30.125 26.207-2.5z"/><path fill="#5EC0D9" d="M479.182 23.521l.903 1.062-20.01 27.625-18.72-30.125 26.208-2.5z"/><path fill="#3AA0BA" d="M442.259 22.896l.904 1.062-20.011 27.625-18.719-30.125 26.207-2.5z"/><path fill="#5EC0D9" d="M405.337 23.271l.903 1.062L382.357 52l-19.024-26.458-.166-1.875 30.551-4.334z"/><path fill="#308FA6" d="M722.7 17.583l16.467 4.334L720 54.25l-18.25-27.625z"/><path fill="#3AA0BA" d="M758.126 13.875l20.122 4.292-20.761 37.5-20.311-32.75z"/><path fill="#308FA6" d="M797.201 11.75l20.123 4.292L798 53.917l-21.748-33.125z"/><path fill="#3AA0BA" d="M836.128 10.125l21.705 4.792-20.833 37-22.333-34.5z"/><path fill="#308FA6" d="M877.878 8.833l21.705 2.917-22.345 38.875-23.613-37.375z"/><path fill="#5EC0D9" d="M900 .083L701.667 18.25l-.042 8.333L899.583 11.75z"/><path fill="#75CFE3" d="M701.75 26.625l-338.583-2.958.083-9.25 338.417 3.833z"/></g><g fill-rule="evenodd" clip-rule="evenodd"><path opacity=".1" fill="#010101" d="M294.644 314.852l70.131-11.264 58.668 10.566-53.965 6.356z"/><path fill="#F6CBB4" d="M364.748 277.177l11.248 18.547 6.158 1.193 2.865-2.713-1.389-15.046zM353.732 276.086l-1.941 20.844-7.792 2.57-1.737-3.506-6.984-21.804z"/><path fill="#2A788C" d="M385.019 294.204l8.527 7.865-8.197 9.11-9.983-1.384.63-14.071zM351.791 296.93l5.829 15.442-10.259 1.537-10.162-1.537 5.063-16.378z"/><path fill="#C3937D" d="M383.63 279.158l-15.242 4.021-3.64-6.002 9.441-.898zM335.278 274.19l17.955 7.251.499-5.355-8.83-1.896z"/><path fill="#4FA8A9" d="M369.301 147.694l7.554 3.393 18.02 26.663.498 11.863-15.706 2.887-10.366-22.062z"/><path fill="#73CBCC" d="M369.301 147.694l-8.46 21.6-11.896 5.089 12.153-9.124-15.826-19.346-15.481 7.848 5.252 29.33-6.668 19.962-9.428 20.42h23.706l26.648-4.763 4.449-6.71-.875-4.687 10.755-27.687z"/><path fill="#369496" d="M325.833 182.5l2.542 20.553L373.75 212l9.88-32.374zM369.301 218.71l-13.799 24.901-23.126 21.719-13.429-41.857z"/><path fill="#4FA8A9" d="M369.301 218.71l5.952 9.991 6.519 31.621v15.957l-46.494-2.089-2.902-8.86z"/><path fill="#369496" d="M335.278 274.19l46.494-13.868 1.858 18.836zM369.301 218.71l12.471 41.612L373.75 212z"/><path fill="#FFF" d="M369.301 147.694l-26.648-.632v30.82l18.188-8.588 20.155 4.463z"/><path fill="#505354" d="M396.704 68.465l16.274 10.379-12.81 17.347-3.464-13.863z"/><path fill="#73CBCC" d="M322.948 68.465l-6.437-4.934-7.767-13.722 54.566-24.305 4.77 14.501.736 11.277-24.167 12.983z"/><path fill="#93D3D4" d="M363.31 25.504l37.83 15.771-4.436 27.19-16.171-6.841-11.717-10.342z"/><path fill="#369496" d="M308.744 49.809l3.332 32.519 7.529-6.464 3.343-7.399z"/><path fill="#2A788C" d="M364.427 30.732l-2.18.89 1.177 6.239-5.23 2.098.785 4.136 5.435-2.06 1.237 5.712 2.247-.762.182-6.98z"/><path fill="#338EA5" d="M364.427 30.732l2.574 1.266 1.243 5.324 5.324 2.556-.073 3.716-4.36-1.948 1.206 6.123-2.443-.784z"/><path fill="#FEE5D6" d="M396.704 68.465l8.088 64.761-31.997 5.143-11.954 30.925-25.64-36.012L317.241 116l12.306-6.769 3.165 3.562 11.759-29.195 10.563-6.349 13.046-5.803z"/><path fill="#F6CBB4" d="M344.471 83.598l7.931 58.542 20.393-3.771-6.41 6.099 1.695 6.098-7.239 18.728-31.513-38.639-2.268-5.021-3.293-1.797-9.887-12.123 12.306-10.418 5.661 12.783 4.191-12.046zM391.343 85.375l-11.811 16.283-5.696 7.594-17.022-18.327z"/><path fill="#FFF1E9" d="M370.836 88.622l3 20.63 6.697-.922-3.119-20.788z"/><path fill="#C3937D" d="M380.533 108.33l-2.914 4.463-3.783-3.541zM372.795 138.369l-4.715 12.198-21.777-8.367zM331.669 118.88l-2.339 11.777-5.56-6.816zM329.088 116.894l-4.333-7.508-5.808 3.407z"/><path fill="#505354" d="M366.385 77.249l3.792-12.984-1.361-12.983-45.868 17.183-21.787 27.578 22.024-5.118 21.286-7.327 9.515-2.757z"/><path fill="#2B2C2B" d="M344.471 83.598l-11.886 31.957-6.399-10.61-12.306 6.769-12.719-15.671z"/><path fill="#707274" d="M368.816 51.282l27.888 17.183-30.319 8.784z"/><path fill="#505354" d="M370.836 88.622l-.687-4.565-13.335 6.868zM377.414 87.542l13.929-2.167-14.443-2.241z"/><path fill="#227779" d="M371.529 121.479l6.834-4.258 7.479 1.978-6.685 3.984z"/><path fill="#3B9FB9" d="M351.242 306.406h-7.562l-6.481 5.966v2.431h20.421v-2.431zM393.546 302.069l-10.989 7.726h-7.191v2.344h29.18v-5.297z"/><path fill="#4FA8A9" d="M365.775 120.75l14.148 6.012 10.668-9.868-11.434 5.551z"/><path fill="#2B2C2B" d="M370.279 98.88c0 1.741-1.412 3.153-3.153 3.153s-3.153-1.412-3.153-3.153c0-1.742 1.412-3.153 3.153-3.153 1.741-.001 3.153 1.411 3.153 3.153zM389.931 95.726c0 1.742-1.412 3.153-3.153 3.153-1.742 0-3.153-1.412-3.153-3.153s1.412-3.153 3.153-3.153 3.153 1.412 3.153 3.153z"/><path fill="#4FA8A9" d="M329.791 153.761l-3.958 28.739 37.417 10.375 3.5-5.5-.583-17.542z"/><path fill="#F6CBB4" d="M395.125 159.75l-28.958 10.083-2.917 23.042L396.75 171l6.25-7.667zM413.667 179.333l-18.792-1.583-15.208 14.75 33-3.667z"/><g><path fill="#75CFE3" d="M418 178.375l1.625 2.125 15.125-.125-3.75 5.5-21.5 1.5 2.625-10.625z"/><path fill="#5EC0D9" d="M421.5 170.375l-1.75 1.875-.125 8.25-4.792 3.875-1.208-15.75z"/><path fill="#75CFE3" d="M418.375 160.875l1.375 2.25 11.25-.25-4.375 5.125-14.5-.125z"/><path fill="#5EC0D9" d="M420.375 154.625l-.625 8.5-4.083 1.833-1.542-6.333zM443.75 175.75l4.25 2-6.75 10.75-9 2.375 3.5-15.875z"/><path fill="#75CFE3" d="M438 166.375l1.375 1.5L448 177.75l-5.5.625L428 168.25l6.875-3.375z"/><path fill="#5EC0D9" d="M441.5 155.375l7 2.5-9.125 10h-6.625l2.375-12z"/><path fill="#75CFE3" d="M424.75 151.5l3-5.125 10.875.625 9.875 10.875-7 1.25z"/><path fill="#3AA0BA" d="M432.75 167.875l8.75-8.75-13.75-12.75-20.5 5.333-.75 39.25 25.75-.083 10.25-12.5-9.75-10.5zm-16.583-9.25l10.083-2.75 2.417 2.333-4.583 7-8.417-.25.5-6.333zm10.666 25.75h-12l.833-11.25 9.667-.5 5.917 5.333-4.417 6.417z"/></g><path fill="#F6CBB4" d="M401.667 162.667l5.666-11 12.5.75-1 10.916-7.25 3.917z"/><path fill="#FEE5D6" d="M407.333 151.667l-12.208 8.083L396.75 171l14.833-3.75z"/></g><g fill-rule="evenodd" clip-rule="evenodd"><path fill="#5EC0D9" d="M426.548 102.287l6.83 8.682 4.91-1.949.864-15.883-10.186-.518zM456.589 78.462l5.605-4.648 4.581 1.886-2.244 33.493-5.607 1.899z"/><path fill="#75CFE3" d="M436.217 80.534l2.589 4.488 15.538.518-.863-.69-.518 8.287-24.343-1.381 1.036-7.769z"/><path fill="#5EC0D9" d="M427.757 78.807l5.989-5.647 5.233 1.676-.173 10.186-5.06 1.545z"/><path fill="#3AA0BA" d="M420.339 73.487l3.27 37.605 9.769-.123.368-14.919 13.406.327-.326 14.715h12.098l3.27-37.278-13.12-.735-1.104 15.082-14.224-1.594V73.16z"/><g><path fill="#75CFE3" d="M551.89 97.367l-2.331 5.352.95 8.718-8.821 2.072-3.265-15.193z"/><path fill="#5EC0D9" d="M540.279 76.843l26.458 13.79-17.178 12.086-6.949-1.597z"/><path fill="#75CFE3" d="M544.639 76.649l5.611-4.661 8.977 2.503 7.51 16.142-5.773-.765z"/><path fill="#3AA0BA" d="M550.25 71.988l-23.135 3.884 2.752 37.455 11.82.182.922-12.387 18.354-11.254-10.713-17.88zm-7.471 16.607l.546-7.092 3.637 3.273-4.183 3.819z"/></g><g><path fill="#75CFE3" d="M592.267 98.661l.195 2.979 1.035 11.977-8.028 1.618-3.301-16.315z"/><path fill="#5EC0D9" d="M602.302 86.36l4.014 2.979-13.854 12.301-8.014-.318-5.064-22.019z"/><path fill="#75CFE3" d="M587.606 78.915l2.932-5.799 8.851 1.979 6.927 14.244-4.484-.719z"/><path fill="#3AA0BA" d="M590.538 73.116l-20.375.742 2.571 40.661 12.734.717-1.021-13.913 17.383-12.702-11.292-15.505zm-6.935 15.707l-.03-7.113 3.89 2.968-3.86 4.145z"/></g><g><path fill="#5EC0D9" d="M647.816 79.368l3.497 2.719-16.639 14.848-9.323 2.244 7.639-12.819z"/><path fill="#75CFE3" d="M613.438 81.699l1.036-8.417 9.711 3.238 7.899 7.639 7.078-10.877 6.647.972 5.504 7.833-5.072-.345-19.401 10.704 3.69 2.763 4.144 1.726 2.266 17.847-5.201 1.144-13.963-30.213z"/><path fill="#3AA0BA" d="M605.669 78.807l14.157 15.711-.604 21.494 12.517-.086-1.209-20.717 15.711-13.467-7.079-8.46-13.811 13.122-10.877-13.122z"/></g><g><path fill="#5EC0D9" d="M480.328 106.172l3.626 6.086 4.273-.906 9.452-24.343s-4.791-7.64-5.179-7.381c-.389.258-12.172 26.544-12.172 26.544z"/><path fill="#75CFE3" d="M498.164 93.191l-7.607.874 8.255 3.075s3.917-3.172 3.658-3.172-4.306-.777-4.306-.777z"/><path fill="#5EC0D9" d="M497.333 81.224l5.007-8.632 6.733 3.28 12.042 36.385-4.1.561z"/><path fill="#3AA0BA" d="M502.34 72.592l-18.128 3.021-13.984 36.774 13.725-.129 4.273-10.941 11.006.712 4.273 11.006 13.509-.216-14.674-40.227zm-11.783 21.473l2.913-8.222 4.014 8.546-6.927-.324z"/></g></g><g fill-rule="evenodd" clip-rule="evenodd"><path fill="#B5B5B6" d="M767.167 70.5l89.333 2.667-2.667 167.666L739.167 216.5l2.666-140.333z"/><path fill="#D0CECD" d="M761.5 96.667L791.333 92l-23.166 18L743 113.667l1-20.834z"/><path fill="#DDDDDC" d="M738.833 88.833l24.334 4.667 28.166-1.5-27.5 9.333-21.333-1.5z"/><path fill="#D0CECD" d="M829 106l-32.667 3.167L821 113.5l28.167 17.833 2.666-28.166z"/><path fill="#DDDDDC" d="M855.333 107L835 101.667l-18.5.5-20.167 7 32.167 2.166 20.5 8.334zM776.5 140.917l21.417-17.834L742 120.417l7 32z"/><path fill="#D0CECD" d="M766.25 137.917l3.25-14.417 28.417-.417-2.667 71.584-31 13.75z"/><path fill="#DDDDDC" d="M755.75 204.167l11.75-8 30.25-2-3 14.5zM783 172.667l-6.833-9.5 38.083-1-4 17zM815.5 162.667l-11.667-17.5 29.167-1.75 15.25 1.5z"/><path fill="#D0CECD" d="M814.75 167.417L827.5 146.5l25.75-.333-5.25 49.25-31 .5z"/><path fill="#DDDDDC" d="M818.25 185.667l9.25-2.167 27.25-1.333-.5 23.75z"/><path fill="#9B9FA0" d="M740.5 122.167l29 1.333-2 72.667 8.333 1.333.334-34.333 27 2.333.666-20.333L827.5 146.5v37l19.333 3 .667 51-110-19.667z"/><path fill="#3AA0BA" d="M731.833 62.167L730 226l131.833 26.5 1.667-194-131.667 3.667zM841.5 224.5l-94.333-14.333L748.5 81.5l94.667-.667L841.5 224.5z"/><path fill="#D0CECD" d="M807.006 150.208l-.089 4.822 5.558.692.233-5.055zM817.048 151.083l-.09 4.822 5.558.692.234-5.055zM749.177 132.548l-.034 4.822 5.566.629.175-5.058zM759.23 133.475l-.034 4.822 5.566.628.175-5.057zM806.177 166.548l-.034 4.822 5.566.629.175-5.058zM816.23 167.475l-.034 4.822 5.566.628.175-5.057zM748.427 150.965l-.034 4.822 5.566.628.175-5.057zM758.48 151.891l-.034 4.823 5.566.628.175-5.058zM747.761 168.215l-.034 4.822 5.565.628.176-5.057zM757.813 169.141l-.034 4.823 5.566.628.176-5.058zM747.761 187.048l-.034 4.822 5.523.922.188-5zM757.813 188.725l-.063 4.692 5.595.758.155-4.758zM805.833 182.292l-.208 4.833 5.641.993.234-5.055zM780.167 170.125l-.209 4.833 5.542.792.333-4.854zM791.667 180.125l-.209 4.833 5.542.792.333-4.854zM780.5 192.125l-.208 4.833 5.541.792.334-4.854zM815.917 183.708l-.25 4.834 5.724 1.034.234-5.055zM805.292 197.708l-.209 4.834 5.642.992.233-5.055zM815.458 199.208l-.208 4.709 5.6 1.076.233-5.055z"/></g><g fill-rule="evenodd" clip-rule="evenodd"><path fill="#D0CECD" d="M624.167 278.167l76.756-5.924-.09 25.924-83 18-17.333-37z"/><path fill="#C4C4C2" d="M532.833 272.167l-93.5 6.041L442.5 305.5l175.333 10.667.834-28.417z"/><path fill="#ECECEB" d="M538.833 266.167l-99.5 12.041 179.334 9.542 82.256-15.507z"/></g><g fill-rule="evenodd" clip-rule="evenodd"><path opacity=".1" fill="#010101" d="M570 248l24 31.875 37.125-3.625L649.5 270l.5-49-66-3z"/><path fill="#349496" d="M559.75 242l-32.083-33.167L579.5 202.5l56 5.25z"/><path fill="#3AA0BA" d="M605.25 194.875l9.375-3.625 1.75 8.75-18.875 32.625-13.375-5.375z"/><path fill="#5EC0D9" d="M603.25 186.625l-30.5 53.625 14.875 5.375 9.708-24.458 17.292-29.917z"/><path fill="#3AA0BA" d="M558 217.5l20.75-7.75L583 226z"/><path fill="#72CBCC" d="M574.5 222.5l22.833-1.333L635.5 207.75l-7.667 66.083L594 279.875z"/><path fill="#4EA9AA" d="M540.25 274.5l-12.583-65.667 69.666 12.334L594 279.875z"/><path fill="#75CFE3" d="M539.25 229.25L559.5 206l19.25 3.75-25 29v-15z"/></g><g fill-rule="evenodd" clip-rule="evenodd" fill="#ECECEB"><path d="M129.5 11.5L28.5 57l-14 77L99 196l138-17 48-69-34.5-77zM277 137.25l-5.25 11 5.25 6 9.75-.25 4.5-9.75L287 137zM303.75 143.75l-3 6 3.5 4 4.5-1.75 3-4.75-2.25-5.75zM322.75 137l-2.5 3.25 4 3.25 3.75-2.75v-3l-1.5-1z"/></g><g fill-rule="evenodd" clip-rule="evenodd"><path fill="#4FA8A9" d="M204.546 139.298l-5.359 2.408-17.921 26.453 13.114-6.207 10.166-6.518z"/><path fill="#73CBCC" d="M196.917 158.058l13.631-3.436 8.44 3.611-8.623-6.474 11.228-13.724 10.983 5.568-3.726 20.807 2.861 13.179-16.963-4.722-9.369 3.627-11.258-11.938z"/><path fill="#369496" d="M233.335 165.689l.29 13.749-34.125 4.312-5.379-19.194z"/><path fill="#FFF" d="M204.546 139.298l18.905-.448v21.865l-12.903-6.093-13.631 3.436z"/><path fill="#505354" d="M185.105 83.09l-11.546 7.363 9.089 12.307 2.457-9.835z"/><path fill="#73CBCC" d="M237.43 83.09l4.567-3.501 5.51-9.734-38.711-17.243-3.384 10.287-.522 8 17.145 9.211z"/><path fill="#93D3D4" d="M208.796 52.612L181.958 63.8l3.147 19.29 11.472-4.853 8.313-7.338z"/><path fill="#369496" d="M247.507 69.855l-2.363 23.07-5.342-4.586-2.372-5.249z"/><path fill="#2A788C" d="M208.004 56.32l1.546.632-.835 4.426 3.711 1.489-.557 2.933-3.856-1.461-.878 4.052-1.594-.54-.129-4.952z"/><path fill="#338EA5" d="M208.004 56.32l-1.827.899-.881 3.776-3.778 1.814.052 2.636 3.094-1.382-.856 4.344 1.733-.556z"/><path fill="#FEE5D6" d="M185.105 83.09l-5.738 45.944 22.7 3.649 8.481 21.939 18.19-25.549 12.741-12.26-8.73-4.802-2.245 2.527-8.343-20.712-7.494-4.504-9.255-4.118z"/><path fill="#F6CBB4" d="M222.161 93.826l-5.626 41.532-14.468-2.675 4.547 4.327-1.202 4.326 5.136 13.286 22.357-27.412 1.609-3.562 2.336-1.275 7.014-8.601-8.731-7.391-4.016 9.07-2.973-8.547zM188.908 95.086l8.38 11.552 4.041 5.387 12.075-13.001z"/><path fill="#FFF1E9" d="M203.457 97.39l-2.128 14.635-4.752-.654 2.213-14.747z"/><path fill="#C3937D" d="M196.577 111.371l2.068 3.167 2.684-2.513zM202.067 132.683l3.345 8.653 15.45-5.936zM231.244 118.856l1.659 8.356 3.944-4.836zM233.075 117.447l3.074-5.326 4.121 2.417z"/><path fill="#505354" d="M206.614 89.322l-2.69-9.212.966-9.211 32.54 12.191 15.457 19.565-15.624-3.631-15.102-5.198-6.75-1.956z"/><path fill="#2B2C2B" d="M222.161 93.826l8.433 22.672 4.539-7.528 8.731 4.802 9.023-11.117z"/><path fill="#DDDDDC" d="M153.51 166.053l-16.421-3.459 35.279-4.16 27.581 5.259-23.111 4.735z"/><path fill="#D0CECD" d="M159.026 166.309l15.266.714 25.657-3.33.128 4.617-26.139 2.126z"/><path fill="#C4C4C2" d="M138.329 166.007l-1.24-3.413 37.203 4.429-.354 3.413z"/><path fill="#5EC0D9" d="M155.3 159.87l-14.471-7.865 31.089-3.667 24.306 4.635-18.766 9.271z"/><path fill="#3AA0BA" d="M160.161 160.096l13.453-4.189 22.61-2.934-.289 10.015-22.633 2.599z"/><path fill="#308FA6" d="M142.498 161.968l-1.669-9.963 32.785 3.902-.312 9.68z"/><path fill="#5EC0D9" d="M163.553 150.712l-10.231-5.313 21.14-2.204 11.192 3.278-19.219 3.844z"/><path fill="#3AA0BA" d="M167.114 150.939l3.843-3.053 14.697-1.413.735 6.614-15.432 1.582z"/><path fill="#308FA6" d="M153.661 152.069l-.339-6.67 17.635 2.487v6.783z"/><path fill="#DDDDDC" d="M168.357 138.277l-1.413-4.451 4.183-.523 2.431 1.031z"/><path fill="#C4C4C2" d="M166.944 133.826l-.678 11.404 3.688.593 1.696-6.91-1.272-4.494z"/><path fill="#D0CECD" d="M173.558 134.334l.339 11.023-3.943.466.424-11.404z"/><path fill="#5EC0D9" d="M170.251 133.826l-2.205-5.045 2.756-5.384.805 4.154 1.527-.339-.679 3.434z"/><path fill="#707274" d="M204.89 70.899L185.105 83.09l21.509 6.232z"/><path fill="#505354" d="M203.457 97.39l.487-3.238 9.46 4.872zM198.79 96.624l-9.882-1.538 10.247-1.589z"/><circle fill="#2B2C2B" cx="207.331" cy="104.667" r="2.237"/><circle fill="#2B2C2B" cx="193.389" cy="102.43" r="2.237"/><path fill="#4FA8A9" d="M232.576 143.603l6.048 24.202-20.249 8.915-6.649-5.364 1.209-6.271z"/><path fill="#F6CBB4" d="M191.175 168.031l21.76-2.946 5.44 11.635-28.504-2.172-.68-2.946z"/><path fill="#FEE5D6" d="M191.175 168.031l-6.97-3.456-.85 3.116 2.21 1.814-12.263.955 16.569 4.088z"/><path fill="#FFF" d="M200.156 119.099l-8.641-1.19.34 1.332 5.185 5.072 8.528-4.052z"/><path fill="#227779" d="M207.047 120.183l-8.93-2.504-7.849-.119 1.058 1.02.548-.17 5.534 1.7 6.97.378.661.019z"/><path fill="#4FA8A9" d="M207.047 120.183l-10.168 6.519-6.611-9.142 1.606.85 5.383 4.628 7.121-2.55z"/></g><path fill-rule="evenodd" clip-rule="evenodd" fill="#FEE5D6" d="M162.407 108.643l2.917.406 8.007-9.251-7.298-9.256-10.951 7.562z"/><path fill-rule="evenodd" clip-rule="evenodd" fill="#F5CBB3" d="M151.6 102.486l3.482-4.382 10.242 10.945-7.054 7.424-9.901-.317z"/><path fill-rule="evenodd" clip-rule="evenodd" fill="#FEE5D6" d="M146.376 115.746l1.869-5.831-.21-7.132 5.002-7.272 2.045 2.593-1.907 4.824 1.587 6.188-4.029 7.535zM30.968 104.301l-2.916.418L22.167 92.5l9.5-7.333 6.583 8.566z"/><path fill-rule="evenodd" clip-rule="evenodd" fill="#F5CBB3" d="M41.75 98.102l-3.5-4.369-10.198 10.986 7.583 9.06 9.401-2.02z"/><path fill-rule="evenodd" clip-rule="evenodd" fill="#FEE5D6" d="M47.027 111.34l-1.892-5.823.182-7.133-5.032-7.252-2.035 2.601 1.927 4.817-1.563 6.194 4.06 7.519z"/><path fill="#494749" d="M130.315 62.912l6.871 5.517-8.436 14.488z"/><path fill="#C3927D" d="M115.104 113.021l-3.768 7.883-9.865 8.545-16.616-14.69 6.217-6.461 2.088-.906 10.08 3.151h5.868z"/><path fill="#F5CBB3" d="M84.796 120.137l11.185 10.138 5.476-1.406-14.516-15.066 4.172-1.043 12.127-2.217-11.222.14-.04-41.86-5.71 2.087L81.7 89.891l-2.843 10.294z"/><path fill="#C3927D" d="M78.857 100.185l5.215-7.198-2.136-2.19-4.652 2.869z"/><path fill="#484749" d="M90.167 70.208l-7.254 18.607-1.449-3.885h-3.505l-3.1-1.678-2.531-11.436 4.686-2.953h9.609z"/><path fill="#FEE5D6" d="M82.088 83.231l1.984 9.756-6.788.679-2.425-10.414z"/><path fill="#C3927D" d="M80.189 85.219l.591 4.49-3.623-4.49z"/><path fill="#4F5353" d="M127.11 48.505l10.076 19.924-4.922 1.812-2.796-.236-6.223-8.782 2.482-7.955z"/><path fill="#6F7273" d="M105.17 60.475l9.663 13.192 11.13-12.956 1.147-12.206-28.32-2.679-.472 3.623z"/><path fill="#484749" d="M109.333 74.667l5.667-10-16.21-18.841-20.976 9.35 4.978 7.991 10.083 7.083 8.792-4.792z"/><path fill="#4F5253" d="M99.263 66.382l-9.68-1.715-11.769-9.491-5.486 16.64 17.327-1.142 3.623.354z"/><path fill="#FEE5D6" d="M129.62 113.542l-38.507-.782-1.446-48.177 25.333.084 10.963-3.956 6.301 9.53z"/><path fill="#F5CBB3" d="M113.688 80.541l3.197-1.377.174-3.085 7.576-.972 2.573.185-1.38 2.205 5.36 1.816-8.521 3.104-3.796 6.137 12.171 2.654-11.834.042-2.458 1.417zM109.714 78.991l-.24 13.797-2.391-1.205-16.708-1 17.09-2.025-2.757-5.808-11.416-4.458 5.426-1.776L97 73.917l5.149-1.016 7.348 2.743z"/><path fill="#C3927D" d="M113.539 95.897l3.303-3.216-3.627-.917-3.741 1.024z"/><path fill="#FFF1E9" d="M116.885 79.164l-7.171-.173-.24 13.797 7.368-.107z"/><path fill="#2A2A2A" d="M119.411 84.092c0 1.181.985 2.166 2.166 2.166 1.182 0 2.166-.985 2.166-2.166s-.984-2.166-2.166-2.166c-1.181 0-2.166.984-2.166 2.166zM102.281 83.57c0 1.221.985 2.166 2.165 2.166 1.182 0 2.166-.945 2.166-2.166 0-1.181-.984-2.166-2.166-2.166-1.18 0-2.165.985-2.165 2.166z"/><path fill-rule="evenodd" clip-rule="evenodd" fill="#1F7678" d="M137.254 123.958l-18.035.794-2.307 20.578 5.005 2.003 22.666-10.682.68-15.262z"/><path fill-rule="evenodd" clip-rule="evenodd" fill="#EAECEB" d="M111.336 120.904l-8.271 39.232-4.616-31.538 3.008.271 2.202.725z"/><path fill-rule="evenodd" clip-rule="evenodd" fill="#FFF" d="M103.065 160.136l-1.608-31.267-9.996-.637-6.665-8.095z"/><path fill-rule="evenodd" clip-rule="evenodd" fill="#1A5E60" d="M117.489 179.753l-7.115 13.654-11.707 2.51-10.75-8.167-7.352-11.265 23.27-6.347z"/><path fill-rule="evenodd" clip-rule="evenodd" fill="#1F7678" d="M121.739 181.428l-4.25-8.677-4.443 11.343-14.379 11.823 14.333-1.5 9.667-1.25z"/><path fill-rule="evenodd" clip-rule="evenodd" fill="#CBCAC8" d="M111.336 120.904l-9.879 7.965 7.011 5.621z"/><path fill-rule="evenodd" clip-rule="evenodd" fill="#EAECEB" d="M92.171 136.156l9.286-7.287-16.618-8.746z"/><path fill-rule="evenodd" clip-rule="evenodd" fill="#72CBCC" d="M119.219 124.752l-7.883-3.848-8.271 39.232 10.909-5.654 7.943-7.149zM75.25 121.875l-6.75 15.792 4.25 7.708 16.016 12.323 14.299 2.438-18.269-39.999z"/><path fill-rule="evenodd" clip-rule="evenodd" fill="#1F7678" d="M87.917 187.75l16.303-13.382 2.691-6.345-3.846-7.887-15.577-1.152-13.821 7.349L73 176.917z"/><path fill-rule="evenodd" clip-rule="evenodd" fill="#1F7678" d="M72.75 145.375l.917 20.958 29.644-1.13-.246-5.067zM48.833 135.167l23.917 10.208 2.5-23.5L57 120.5l-8.116 8.426z"/><path fill-rule="evenodd" clip-rule="evenodd" fill="#349496" d="M121.159 170.65l.758-23.317-18.852 12.803.246 5.067z"/><path fill-rule="evenodd" clip-rule="evenodd" fill="#349496" d="M121.739 181.428l-.421-15.255-18.007-.97.909 9.165 8.826 9.726z"/><path fill="#72CBCC" d="M148.22 109.974l-10.506 13.89 6.869 12.787 13.687-20.178z"/><path fill="#494749" d="M109.888 71.993l-13.18-.16.292 2.084 12.497 1.727zM117.103 72.298l-.044 3.781 10.149-.787-.083-1.917z"/><path fill="#C3927D" d="M101.486 98.389l5.347 9.236 11.667-.375 4.122-8.311z"/><path fill="#FFF" d="M105.673 100.069l13.452.473-.958 2.166-11.375-.208z"/><path fill-rule="evenodd" clip-rule="evenodd" fill="#72CBCC" d="M45.135 105.517L57 120.5l-8.167 14.667-13.198-21.388z"/><path fill-rule="evenodd" clip-rule="evenodd" fill="#349496" d="M89.833 75.375l19.667.708.214 2.908L93.5 78.5l.333 8.958 15.667.292-.042 2.833-19.166-.041zM117.059 76.079l17.129 1.046-.875 14.25-16.5-1.125v-2.375l14 .5.375-9.062-14.303-.149z"/><g fill-rule="evenodd" clip-rule="evenodd"><path opacity=".1" fill="#010101" d="M740.833 300.167L767.5 339.75l91 1.083-5.667-54L844.5 265.5z"/><path fill="#858686" d="M729.833 298.833L767.5 339.75l77-3.25v-71l-120-4z"/><path fill="#8F8F8F" d="M741.167 253.5l-63.334-6.667L674.5 313.5l93 26.25 1.833-69.917z"/><path fill="#A3A1A1" d="M677.833 246.833L750.5 243l94 22.5-75.25 5.333z"/><path fill="#DDDDDC" d="M687.25 261l-2 47.25 69 19.25 2.75-49.75z"/><path fill="#8F8F8F" d="M716.75 264l-3 56.25 5.5 1.75 3.25-57.75z"/><ellipse fill="#B7B7B7" cx="709.438" cy="291.813" rx="2.812" ry="3.563"/><ellipse fill="#B7B7B7" cx="725.938" cy="295.313" rx="2.812" ry="3.563"/></g><g fill-rule="evenodd" clip-rule="evenodd"><path opacity=".1" fill="#010101" d="M710.917 249.167l21.5 7.416 25.416-3.666-22.666-6.417z"/><path fill="#1F7678" d="M726.75 194.125l.688 4.25 2.75 10.219-.5 5.281 2 7.75 5.187-1.312-1.375-1.563-7.625-26.75z"/><path fill="#4EA9AA" d="M724.188 186.25l-8.938 8.375 12.188 3.75 2.729-10.167z"/><path fill="#72CBCC" d="M717.5 177l-2.208 17.5 14.875-6.292z"/><path fill="#258484" d="M742.41 194.584l-2.702 3.583-7.333 19.708.878 3.106 5.166 1.395 1.019-15.501 1.484-8.016z"/><path fill="#4EA9AA" d="M741.613 192.185l-9.061 2.23 5.768 6.686 6.274-4.403z"/><path fill="#72CBCC" d="M740.62 183.546l-7.993 10.802 11.967 2.35z"/><path fill="#349496" d="M751.938 212.063l-12.5-5.188-4.271 12.625 6.208 2.875 4.063-3.125zM721.188 212.313l9-3.719 3.437 13.656L725.5 218l-6.5-5.375z"/><path fill="#C4C4C2" d="M728.667 223.667l6.5-4.167 10.271-.25 4.062 7.917-18 10z"/><path fill="#DDDDDC" d="M728.167 232.5l-.498-.509-7.002-7.158L725.5 218l9.667 1.5-1.334 8.167z"/><path fill="#349496" d="M731.5 237.167l2.333 15.666 7.5-.833 8.167-24.833-15.667.5z"/><path fill="#4EA9AA" d="M727 251.333l-6.333-26.5 13.166 2.834v25.166zM716.938 205.031l-3.063 18.907 16.313-15.344zM754.75 202.375l.938 18.375-16.25-13.875z"/></g><g fill-rule="evenodd" clip-rule="evenodd"><path opacity=".1" fill="#010101" d="M152.5 290.167l111.333-9.334 31.334 22.667 14.666 2-170 39.333L15.5 313.5l3-62.667 8.25-15.75z"/><path fill="#3AA0BA" d="M283.25 285.375l-6.417 21.125-13.583-1.625-13.083-27.708 29.333-.417 3.5 8.125"/><path fill="#308FA6" d="M45.125 309.25l4.322 7.794 14.803-.794 10-22.75-29.625 4.375z"/><path fill="#5EC0D9" d="M103.5 296.333l24 34.167 14.25-1.5L153 303.5l121-16.75 2.833 19.75 18.334-3L300 247 83.5 264.5z"/><path fill="#3AA0BA" d="M35.25 257.75l5.5 58 8.697 1.294L54 307.75l53.75 9 3.25 11 16.5 2.75 4.333-51z"/><path fill="#A3A1A1" d="M140.5 262.833l-8.667 16.667L26.75 266.417v-31.334l110.417.417z"/><path fill="#C4C4C2" d="M135.833 238.167l-2.666 14.666-1.334 26.667 176.334-19.667-.667-24.333z"/><path fill="#ECECEB" d="M26.75 235.083L196 219l111.5 16.5-174.333 15.333z"/></g><g><g fill-rule="evenodd" clip-rule="evenodd"><path fill="#5EC0D9" d="M137.333 231.833L116 220.238l45.833-5.405 35.834 6.834L170 235.333z"/><path fill="#3AA0BA" d="M144.5 232.167l19.833-6.175 33.334-4.325.166 15.833-33.96 2.762z"/><path fill="#308FA6" d="M117.611 234.508L116 220.238l48.333 5.754-.46 14.27z"/><path fill="#5EC0D9" d="M149.5 218.333l-15.083-7.833 31.166-3.25 16.5 4.833-28.333 5.667z"/><path fill="#3AA0BA" d="M154.75 218.667l5.667-4.5 21.666-2.084 1.084 9.75-22.75 2.334z"/><path fill="#308FA6" d="M134.917 220.333l-.5-9.833 26 3.667v10z"/><path fill="#ECECEB" d="M156.583 200l-2.083-6.562 6.167-.771 3.583 1.521z"/><path fill="#D0CECD" d="M154.5 193.438l-1 16.812 5.438.875 2.5-10.187-1.875-6.625z"/><path fill="#DDDDDC" d="M164.25 194.188l.5 16.25-5.812.687.625-16.812z"/><path fill="#5EC0D9" d="M159.375 193.438l-3.25-7.438 4.063-7.937 1.187 6.125 2.25-.5-1 5.062z"/></g></g></svg>