<svg xmlns="http://www.w3.org/2000/svg" viewBox="0 0 900 350"><path fill="#DDDDDC" d="M782.321 55.205l-38.703 2.326-83.633 3.09 71.488 16.95 26.654-6.242 30.345 5.722L838.5 62.66z"/><path fill="#ECECEB" d="M838.5 62.66l-52.488-17.858-46.338 8.843-28.704-6.762-50.985 13.738 74.358 6.894 47.021-9.016z"/><path fill="#DDDDDC" d="M285.227 9.95l-1.995.063-75.594 2.394 72.962 15.74 20.873-4.593 24.07 3.521 44.191-16.072z"/><path fill="#ECECEB" d="M369.734 11.003l-61.679-6.737-21.249 5.052L262 .822l-54.362 11.585 100.981 6.555z"/><path fill="#DDDDDC" d="M66.565 99.944l-1.573.058-59.634 2.22 35.478 13.393 18.141-3.691 34.261 10.539 39.994-21.543z"/><path fill="#ECECEB" d="M133.232 100.92l-33.043-8.582-27.409 5.393-24.538-6.25-42.884 10.741 91.798 6.319z"/><path fill="#6F9D51" d="M613.463 195.512l59.556-17.425 76.374 42.391 9.016 29.822-146.333 1.387 1.387-56.175"/><path fill="#C0DB8F" d="M435.228 227.413l23.233-20.458 75.941-18.379 79.061 57.563-167.659 61.896z"/><path fill="#99C26B" d="M444.938 230.361l-95.186-11.183L156.78 262.09l18.378 7.628 233.716 1.387 34.677-13.177z"/><path fill="#6F9D51" d="M349.752 219.178l-194.706 38.75 20.112 11.79 187.077 47.506-80.622-54.094z"/><path fill="#9B9FA0" d="M451.699 297.459l-152.661-45.512-211.437 15.864L50.5 292.167z"/><path fill="#858686" d="M173.944 322.946l8.322-70.219-95.185 1.04L50.25 294.5z"/><path fill="#858686" d="M487.589 283.935l-188.551-31.988-65.798 26.267-203.721 15.777z"/><path fill="#858686" d="M197.351 307.862l116.164-37.45 160.42-14.564 255.779-16.125 80.709 35.89-433.104 56.175z"/><path fill="#9B9FA0" d="M197.351 307.862l386.291-12.483 42.304-51.321 103.768-4.335 80.709 35.89-433.104 56.175z"/><path fill="#858686" d="M197.351 307.862l337.744-.694 194.619-67.445 80.709 35.89-433.104 56.175z"/><path fill="#C4C4C2" d="M197.351 307.862l26.007-36.41 250.881-14.044 88.944 22.366-185.864 52.014z"/><path fill="#ECECEB" d="M157.126 299.54l10.056 50.627 497.255-7.976 102.294-45.425-80.188-32.596-229.816 19.592-245.333 7.455z"/><path fill="#DDDDDC" d="M664.437 342.191L899.875 294.5l-110.258-26.169-103.074-4.161zM.564 302.14l166.618 48.027 289.545-66.405-233.369-12.31z"/><path fill="#9B9FA0" d="M611.903 215.277l-54.615 30.688-106.109-17.685 6.762 27.048 16.298 2.08 98.653-5.721z"/><path fill="#A0CF7F" d="M624.559 223.252l36.368-9.665 38.186-21.023 61.376 13.35-97.093 26.354z"/><path fill="#6F9D51" d="M451.179 215.624l66.058-6.589 49.413 21.153-2.08 16.817-112.004-16.471z"/><path fill="#99C26B" d="M564.05 177.827l-46.813 31.208 42.651 21.326z"/><g><path fill="#ABABAB" d="M36.103 270.412l6.506 20.805 37.97 7.282-6.225-73.513-33.926.78z"/><path fill="#BCBCBC" d="M54.572 226.547l-22.453-.347-.173 76.721 24.186-3.901-.064-64.758z"/><path fill="#74C7A5" d="M32.119 226.2l18.283-4.942 23.952 3.728-18.286 9.276z"/><path fill="#8F8F8F" d="M86.845 246.443l7.412 52.924 25.973-7.212-3.371-51.261-24.881-7.651z"/><path fill="#9B9FA0" d="M93.628 231.043l-23.712 2.872-2.977 59.585 27.318 5.867 1.571-55.185z"/><path fill="#C4C4C2" d="M69.916 233.915l24.995-6.172 21.948 13.151-21.196 7.022z"/><path fill="#8F8F8F" d="M45.675 274.233l7.495 36.03 25.973-7.211-4.194-42.203-24.798 6.702z"/><path fill="#9B9FA0" d="M51.841 267.031l-29.778 8.192 3.789 29.173 27.318 5.867 1.489-38.291z"/><path fill="#74C7A5" d="M22.063 275.223l9.883-11.053 43.003-3.321-20.29 11.123z"/><g><path fill="#8F8F8F" d="M802.68 212.156l8.193 34.589 34.139-10.229-5.243-85.737-31.73.261z"/><path fill="#9B9FA0" d="M810.208 147.919l-31.167 4.074-4.074 86.43 53.487 10.49-11.346-88.858z"/><path fill="#74C7A5" d="M779.041 151.993l31.045-4.941 29.683 3.727-22.661 9.276z"/></g><g><path fill="#8F8F8F" d="M753.613 239.723l8.193 34.59 44.889-4.421-1.3-81.662-50.454 7.282z"/><path fill="#9B9FA0" d="M760.663 191.871l-43.692 5.201-1.04 67.098 53.574 11.183-.424-82.702z"/><path fill="#74C7A5" d="M716.971 197.072l60.856-16.644 28.348 7.802-36.574 14.303z"/></g><g><path fill="#A3A1A1" d="M846.198 263.303l8.193 34.59 28.158-5.982-7.455-52.968-34.676 2.428z"/><path fill="#C4C4C2" d="M846.313 237.903l-23.85-.954-3.978 52.621 35.906 8.323-8.425-52.361z"/><path fill="#74C7A5" d="M822.463 236.949l21.942-6.588 30.689 8.582-29.128 6.589z"/></g><g><path fill="#A3A1A1" d="M792.103 273.706l8.194 34.589 34.139-10.229-9.601-77.848-26.852 4.248z"/><path fill="#C4C4C2" d="M800.152 221.345l-31.167 4.075-4.595 74.553 35.907 8.322 11.089-74.813z"/><path fill="#DDDDDC" d="M768.985 225.42l36.735-11.053 19.115 5.851-13.449 13.264z"/></g><g><path fill="#A3A1A1" d="M738.037 280.381l8.842 34.589 48.373-8.148-1.56-46.033-48.373.867z"/><path fill="#C4C4C2" d="M747.659 258.535l-37.45 6.675-2.08 41.438 38.75 8.322 3.901-37.796z"/><path fill="#DDDDDC" d="M710.209 265.21l56.955-16.384 26.528 11.963-42.912 16.385z"/></g><g><path fill="#A3A1A1" d="M100.604 299.41l11.078 24.056 25.973-7.211-2.981-30.109-24.093-.264z"/><path fill="#C4C4C2" d="M101.569 279l-24.501 2.855-3.367 31.063 37.981 10.548-.805-26.527z"/><path fill="#DDDDDC" d="M77.068 281.855l17.988-6.242 41.308 8.322-25.487 13.004z"/></g></g><g><path opacity=".1" fill="#2B2B2B" d="M268.263 319.652l20.459-5.028 24.1 5.375-21.673 6.241z"/><path fill="#54B08B" d="M304.24 293.948l-7.673-2.34-9.102 23.926 2.861 6.372 5.331-1.041 14.694-20.675z"/><path fill="#3F8F6F" d="M270.43 298.629l16.645 1.821 3.251 21.456-5.852-1.431z"/><path fill="#54B08B" d="M287.075 300.45l-17.165-10.273-10.663 16.515z"/><path fill="#74C7A5" d="M316.983 286.146l-.26 24.577-20.156-19.115z"/></g><g><path fill="#387A5E" d="M183.047 274.313l56.435-.26-3.67-85.544-31.53-10.557z"/><path fill="#52B08A" d="M230.105 180.805l5.736 105.211 20.025-16.905-17.769-75.859z"/><path fill="#387A5E" d="M131.996 246.053l-1.142 23.588 47.938-7.229v-87.885l-38.426 8.751z"/><path fill="#52B08A" d="M139.605 176.81L119.85 280.555l24.706 9.622-2.319-97.201z"/><path fill="#FEE5D6" d="M277.499 145.142l.876-6.282 14.028-9.331 8.99 5.677-8.846 13.165z"/><path fill="#F5CBB3" d="M268.746 140.174l9.629-1.314 14.172 9.511-15.075 5.113-13.93.648z"/><path fill="#FEE5D6" d="M264.725 155.315l-2.662-4.344 2.425-11.979 9.463-7.097 2.365 2.129-4.494 6.623.946 4.495zM98.63 146.07l-1.065-6.829-13.839-8.785-8.989 5.678 8.846 14.425z"/><path fill="#F5CBB3" d="M107.383 141.102l-9.818-1.861-13.982 11.318 14.98 6.135 14.025-1.635z"/><path fill="#FEE5D6" d="M111.405 156.242l2.586-5.454-2.35-10.869-9.462-7.097-2.366 2.129 4.495 6.624-.947 4.495z"/><path fill="#738D57" d="M151.533 190.062l-9.296 2.914-11.208-9.657-3.19-11.3 22.78-19.954 2.92 5.012.364 26.606zM221.878 157.077l2.915-4.648 25.059 20.229-.911 9.75-10.844 10.844-10.569-3.007-3.19-4.921z"/><path fill="#F5CBB3" d="M261.606 200.178l-23.509-6.926 19.956-34.991 8.11-2.278 8.693 5.609z"/><path fill="#6F9D51" d="M262.063 150.971l-4.01 7.29 16.803 3.331 2.853-7.989z"/><path opacity=".1" fill="#2B2B2B" d="M124.769 324.616l64.121-13.908 77.408 12.386-75.034 12.033z"/><path fill="#3F8F6F" d="M230.989 236.624l-12.867 45.404-13.922 2.252-11.758.317s-.996-21.456-1.364-20.455l3.827-28.883 7.838.182 6.742-3.736 21.686 5.01-.182-.091z"/><path fill="#F5CBB3" d="M218.123 282.029l-19.926 3.02-5.34 6.884.683 13.306 8.2 3.098 10.382-2.895z"/><path fill="#54B08B" d="M162.624 287.807l-9.908-49.54 24.15-11.303 22.416 10.298-10.692 47.787-12.079 3.043z"/><path fill="#F5CBB3" d="M186.973 292.467l-15.218-4.28-9.131-.38 3.707 18.888 8.62 3.831 8.841-3.554z"/><path fill="#97C16B" d="M160.115 320.823l6.216-14.128 17.25.304 4.147 13.866-4.852.172-19.074 2.429zM192.902 317.952l.712-12.713 18.508.203 16.984 12.51-5.084 2.438h-26.645z"/><path fill="#37785E" d="M230.989 236.624l-34.809 14.671-43.464-13.028 47.564-4.647z"/><path fill="#6F9D51" d="M151.533 190.062l1.183 48.205 78.273-1.643-3.461-46.379-4.466-3.008-25.422 12.664-41.188-14.943z"/><path fill="#97C16B" d="M150.619 152.065l.914 37.997 47.898 10.431 28.097-10.248-2.735-37.816-14.58-7.654-14.215 9.385-29.952-11.591z"/><path fill="#C3927D" d="M171.397 135.755l12.531 15.755 12.528 5.931 13.757-12.666 5.925-16.31-33.898-5.194z"/><path fill="#F5CBB3" d="M159.005 119.535l7.041 23.034 17.882 8.941-6.753-16.217 5.136.143.385-85.519-13.485 5.376-11.484 34.353z"/><path fill="#494749" d="M143.124 77.988l7.313 11.476 11.139.698.983 10.51 6.558-17.222 3.736-25.879-17.935 8.527z"/><path fill="#4F5353" d="M162.559 100.672l9.566-1.822.728-41.279-15.942 30.617z"/><path fill="#C3927D" d="M168.847 108.053l-5.286-1.185-7.291 3.827 2.738 8.286z"/><path fill="#FEE5D6" d="M239.949 135.436l2.522-82.511-6.47-4.1-53.305 1.092-9.114 3.645 8.729 81.874zM164.747 86.64l-14.31 2.824 5.833 21.231 12.577-2.642z"/><path fill="#C3927D" d="M154.905 92.563l5.739-.821 1.915 8.93z"/><path fill="#4F5353" d="M150.437 49.189l-7.313 28.799 29.729-20.417-8.106-8.746z"/><path fill="#494749" d="M180.784 33.243l-30.347 15.946 22.416 8.382 15.585-13.758z"/><path fill="#4F5353" d="M217.978 31.477l-37.194 1.766-7.931 24.328 42.828 3.281 10.48-6.287-3.827-3.645 2.095-1.094z"/><path fill="#494749" d="M248.082 50.69l-30.104-19.213-2.297 29.375 26.243-3.918 1.277.091z"/><path fill="#6F9D51" d="M98.563 156.694l15.427-5.905 4.191 7.108-5.375 5.012-11.247.491-2.996-6.706z"/><path fill="#F5CBB3" d="M115.814 201.361l-14.254-37.962 16.531-5.503 24.146 35.08z"/><path fill="#6F9D51" d="M187.728 320.865l-27.613-.042v4.913l27.353-.189zM192.902 317.952h36.204v4.373h-36.204z"/><path fill="#4F5353" d="M241.757 80.27l6.325-29.58-6.158 6.244z"/><path fill="#F5CBB3" d="M226.77 78.904l7.687.035-9.461 10.765-2.237 13.191-5.015 2.005-4.858-2.082-5.478-9.181-15.538-14.912 8.903-.052 8.486 2.467.772 3.191 8.1 3.753 3.615-2.545.087-4.012z"/><path fill="#4F5353" d="M192.107 73.898l17.025 4.399.049 2.767-17.312-2.339.238-4.827zm42.35 5.041l-12.624 2.512-.288-2.797 12.127-3.638.785 3.923z"/><path fill="#C3927D" d="M218.208 106.983l-5.322-4.165 9.873.077z"/><path fill="#2B2C2B" d="M201.971 85.314c-1.905-.056-3.499 1.441-3.555 3.347-.057 1.906 1.443 3.498 3.346 3.556 1.908.056 3.499-1.441 3.558-3.347.058-1.906-1.442-3.498-3.349-3.556zM229.026 85.556c-1.904-.056-3.499 1.441-3.555 3.347-.057 1.906 1.443 3.498 3.346 3.556 1.908.056 3.499-1.441 3.558-3.347.058-1.907-1.442-3.498-3.349-3.556z"/><path fill="#FFF1E9" d="M212.886 102.818l-2.855-18.487 11.715.725 1.013 17.839z"/><path fill="#C3927D" d="M208.581 111.628l15.581.242 2.091 11.867h-20.925z"/><path fill="#FFF" d="M209.608 113.988l13.364.047.665 4.138h-14.694z"/><path fill="#52B08A" d="M193.296 155.124l-27.25-12.555-15.427 9.496 46.244 27.028 27.93-26.664-14.58-7.654z"/><path fill="#C3927D" d="M186.973 292.467l1.617-7.418-25.966 2.758zM192.857 291.933l25.266-9.904-25.681 2.568z"/></g><g><path fill="#387A5E" d="M664.704 282.576l-85.84 7.205-10.415-39.163 76.662-103.483z"/><path fill="#52B08A" d="M649.391 170.533l14.695 41.517 14.221 67.031-23.875 21.377z"/><path fill="#F5CBB3" d="M544.861 155.125l-20.544 29.294 20.734 37.856 30.627-5.136-7.609-41.089z"/><path fill="#C3927D" d="M537.252 164.636l-12.935 19.783 38.045 3.044-4.375-14.647z"/><path fill="#FEE5D6" d="M680.904 137.52l14.385-14.385 15.355 8.89-8.566 19.072-9.213 4.525z"/><path fill="#F5CBB3" d="M680.904 137.52l21.174 13.577-13.739 15.031-16.162-6.95z"/><path fill="#FEE5D6" d="M677.995 164.512l-5.172-9.213-.323-13.415 5.334-13.092 4.848 1.94-2.101 10.505 4.849 9.375z"/><path fill="#738D57" d="M561.645 132.107l-8.698 2.269-24.445 28.358 31.958 27.392 15.598-17.881-1.877-40.138zM624.376 150.94l18.642-17.501 29.628 39.234-39.139 26.965z"/><path opacity=".1" fill="#2B2C2B" d="M504.044 315.612l88.84-10.224 76.927 11.471-71.497 13.464z"/><path fill="#3F8F6F" d="M596.944 261.967l-11.47 17.649-22.929 7.67-15.379-23.633 3.913-38.345 21.058 4.595z"/><path fill="#54B08B" d="M572.055 241.513l6.283 18.598 16.681 19.696 14.205 7.479 20.167-1.239 8.129-16.135 2.707-41.329-68.09-1.812z"/><path fill="#F5CBB3" d="M602.518 289.324l7.591-9.22 27.411-10.192-1.626 34.748-14.62 3.297-12.05-10.098zM547.166 263.653l27.085 15.737 4.613 10.391-12.122 18.661-15.663-7.244-6.493-11.269z"/><path fill="#97C16B" d="M609.224 297.859l-8.421 17.002 18.709 3.194 18.798-2.997-2.416-10.398z"/><path fill="#6F9D51" d="M638.025 321.193l-37.222.056v-6.388l37.507.197z"/><path fill="#97C16B" d="M544.586 289.929l-21.017 18.513 21.017 4.026 27.097-4.401.381-8.37z"/><path fill="#37785E" d="M640.227 228.583l-61.889 31.528-27.259-34.803 26.354-2.037z"/><path fill="#7BA35A" d="M617.291 126.402l25.727 7.037-2.791 95.144-53.896 7.959-14.838-33.861-16.441-55.877-2.105-12.428 10.653-5.318z"/><path fill="#97C16B" d="M617.291 126.402l-26.966 56.971-3.994 53.169-35.252-11.234 3.973-78.504-2.105-12.428 10.653-5.318z"/><path fill="#52B08A" d="M617.291 126.402l25.727 7.037-52.693 49.934-37.378-48.997 10.653-5.318z"/><path fill="#FEE5D6" d="M539.915 48.217l3.664 76.894 23.539-1.184 19.905 9.011 24.417-.45 9.698-16.922 6.929-53.706-18.297-26.251-36.331-5.509-19.637 15.264z"/><path fill="#F5CBB3" d="M602.982 34.825l-6.569 11.3 1.545 76.427-13.103 14.827 6.802 19.458 33.622-28.178 1.101-30.95-.674-10.374.985-.531 1.262-22.101-18.183-29.094zM584.306 69.168l-15.172 21.004-8.726.471-12.503-19.5 4.111-2.63 8.013 1.435 1.248 2.155 5.988-.311 1.059-2.355 11.822-4.39z"/><path fill="#C3927D" d="M626.691 86.804l-11.165-1.324 10.854 12.229zM618.526 77.322l.367-6.883 6.288.888z"/><path fill="#FFF1E9" d="M567.265 71.792l1.869 18.38-8.726.471.869-18.54z"/><path fill="#C3927D" d="M560.408 90.643l4.973 4.296 3.753-4.767z"/><path fill="#4F5353" d="M568.515 30.31l10.591-3.476 10.909.782 2.408 2.095 8.808-1.291 15.191 1.088-2.031 8.286-8.878 9.456-9.1-1.125-13.697-6.278-6.658 3.805-16.74 4.946z"/><path fill="#494749" d="M616.422 29.508l11.682 17.621-.257 20.396-8.417-6.42-4.275-.487-1.875 13.566-4.661.218-6.95-12.382 6.01-5.384-2.166-9.386z"/><path fill="#6F7273" d="M539.915 48.598l8.37-13.887 30.821-7.877-19.788 21.764z"/><path fill="#4F5353" d="M605.513 47.25l22.334 20.275-26.178-5.505z"/><path fill="#6F7273" d="M576.058 43.652l13.957-16.036 11.219.804-4.821 17.705z"/><path fill="#494749" d="M584.306 69.168l.931-3.069-3.567-4.376-13.232 5.053-.114 2.661 11.72-3.118zM560.029 69.948l-.188-2.494-12.376-1.712.44 5.401z"/><path fill="#2B2C2B" d="M577.609 74.688c.197 1.624-1.009 3.084-2.694 3.261-1.685.177-3.211-.996-3.409-2.62-.197-1.624 1.009-3.084 2.694-3.261 1.686-.177 3.212.996 3.409 2.62zM558.135 76.336c.198 1.624-1.009 3.084-2.694 3.261-1.685.177-3.211-.996-3.409-2.62-.197-1.624 1.009-3.084 2.694-3.261 1.685-.177 3.211.996 3.409 2.62z"/><path fill="#C3927D" d="M556.132 97.771l20.687-1.141 3.995 13.696-26.109 1.142zM567.118 123.927l40.769-2.023-16.23 34.933z"/><path fill="#6F9D51" d="M571.683 314.725l-48.114.105v-6.388l48.114-.375z"/><path fill="#FFF" d="M557.749 99.769l17.406-1.189 1.189 4.803-18.857 1.094z"/><path fill="#C3927D" d="M547.166 263.653l31.698 26.128 6.61-10.165zM637.52 269.912l-35.002 19.412-7.498-9.515z"/><path fill="#F5CBB3" d="M666.358 164.673l-25.052 29.638 22.78 17.739 18.758-36.225-5.461-14.431z"/><path fill="#97C16B" d="M666.358 164.673l16.486 11.152 5.495-9.697-15.516-10.829z"/><path fill="#FEE5D6" d="M552.28 201.92l-11.461 31.531 16.217.237 6.658-19.783z"/></g><g><path fill="#FEE5D6" d="M509.573 109.945l5.326-3.995 16.359-4.28 3.995 11.794-13.125 9.512z"/><path fill="#F5CBB3" d="M508.621 110.706l6.278-4.756 7.229 17.026-14.933 11.033-7.324-6.563z"/><path fill="#FEE5D6" d="M495.781 132.582l4.661-12.46 2.473-10.843 10.082-8.179 3.329 2.282-6.373 10.367 1.236 9.417zM297.327 177.38l-6.206-4.85-13.839-1.427.499 12.698 18.262 4.28z"/><path fill="#F5CBB3" d="M305.317 169.819l-5.493 1.569-8.703 1.142 4.922 15.551 18.547-.999 2.996-11.128z"/><path fill="#FEE5D6" d="M319.013 176.096l-7.847-5.564-8.275-5.992-11.984-.143.428 5.493 8.489 1.498 4.351 4.708z"/><path fill="#387A5E" d="M356.451 270.955l76.118 3.2 45.918-11.805-27.214-94.173-73.492-5.431-16.583 22.051-15.3 67.971z"/><path fill="#52B08A" d="M356.349 187.687l-24.802 89.227 21.342 24.179 14.518-120.038-8.126-12.982zM449.452 160.474l3.536-3.589 31.855 103.244-19.213 28.914z"/><path opacity=".1" fill="#2B2B2B" d="M339.037 310.036l64.865 12.868 70.277-12.261-64.375-7.974z"/><path fill="#59763E" d="M427.97 148.751l22.062 19.736L429.93 208.5l-38.213 1.296-13.151-22.418-2.686-11.384-11.178-20.99z"/><path fill="#73C7A4" d="M407.668 151.554l1.866 6.957-7.186 4.299-30.299-6.303-6.556-4.575.838-12.011 16.245-5.896 14.988 2.094z"/><path fill="#333" d="M364.668 129.07l-15.526-11.853 4.608-16.469 11.342 4.368z"/><path fill="#73C7A4" d="M407.668 151.554l11.068 5.712 17.94-7.597 7.173-22.128-23.983.471-24.385 10.646z"/><path fill="#97C16B" d="M417.162 178.937l-9.629-10.378-5.185-5.749 16.628-5.926 11.688 3.738z"/><path fill="#D8E259" d="M418.976 156.884l-5.383 11.297-11.245-5.371 5.32-11.256z"/><path fill="#728C57" d="M417.162 178.937l32.727-9.689L429.93 208.5l-17.927 9.379-25.296 7.98-6.953-6.631-1.188-31.85z"/><path fill="#59763E" d="M417.226 202.613l4.808 11.549 22.18 1.193 6.436-45.536-33.488 9.118z"/><path fill="#728C57" d="M418.976 156.884l-1.814 22.053 33.488-9.118-1.198-9.345 3.317-15.169-8.92-17.764z"/><path fill="#52B08A" d="M372.049 156.507l-5.718-16.586-12.225 12.863 7.166 10.036z"/><path fill="#97C16B" d="M345.027 189.174l-30.437-2.092-3.424-16.55 25.681-.761 16.707 12.038z"/><path fill="#728C57" d="M375.88 175.994l-30.853 13.18-8.18-19.403 17.259-16.987 17.943 3.723z"/><path fill="#F5CAB4" d="M399.822 279.696l-10.298 23.712-4.013 4.066-10.087-5.544 1.584-31.106 20.913 4.436zM420.471 279.802l-2.007 20.49 5.704 7.975 7.024-6.866 13.678-30.472-20.016 1.795z"/><path fill="#FEE5D6" d="M418.464 300.292l13.044.211 13.203 10.51-8.449.845-19.435-.158z"/><path fill="#F5CAB4" d="M436.262 311.858l10.879-6.39-1.215 6.549z"/><path fill="#FEE5D6" d="M389.524 303.408l.053 10.879-23.765-.792 9.612-11.565z"/><path fill="#F5CAB4" d="M365.812 313.495l11.935-6.813 11.83 7.605z"/><path fill="#C3927D" d="M377.008 270.824l22.814 8.872 3.855-8.872zM420.471 279.802l24.399-8.873h-23.448z"/><path fill="#5B763E" d="M443.849 127.541l5.603 32.933 31.206-5.35 7.799-23.588-17.691.761z"/><path fill="#D8E259" d="M388.309 219.228h-8.555l-2.746 51.596h26.669l7.763-16.899 8.609-6.92 2.481-32.742z"/><path fill="#B6C641" d="M444.5 210.99l-21.97 3.273-11.142 39.503.052.159 9.982 17.004h23.448z"/><path fill="#97C16B" d="M422.53 214.263l-7.024-10.351-3.59 11.883z"/><path fill="#FEE5D6" d="M422.717 122.504l-16.141 13.302 1.092 15.748-25.092-17.529 2.018-33.6-5.639-20.666 3.772-24.51 29.353-9.9 23.55 7.673 4.303 6.377 7.153 58.87z"/><path fill="#F5CAB4" d="M371.005 90.963l11.571 43.062 25.092 17.529 5.41-10.376-11.958-15.597-9.197-55.73-3.372-5.649-9.789 14.924z"/><path fill="#858686" d="M405.587 42.836l33.298-14.43-11.238-4.885-63.303 14.602 13.557 14.63z"/><path fill="#333" d="M444.245 51.225l-1.053 6.469L456.321 73.1l-12.807 15.708-3.581-29.409-4.003-6.262 3.084-4.005z"/><path fill="#FFF1E9" d="M429.751 93.379l-7.742 1.22-4.131-24.616 7.742-1.22z"/><path fill="#C3927D" d="M429.751 93.379l-2.771 3.53-4.971-2.31zM374.818 105.002l9.776-4.577-6.789 15.807z"/><path fill="#474749" d="M399.629 69.864l3.056 2.188 6.57-5.503 5.225 1.068.222-1.086-5.446-2.623zM424.995 64.701l.625 4.062 6.58-5.554 3.889 1.28.169-.828-4.897-2.942z"/><path fill="#F5CAB4" d="M402.685 72.052l18.092 15.126-2.899-17.195-3.398-2.366-5.225-1.068zM427.631 80.548l8.458-16.059-3.889-1.28-6.58 5.554z"/><path fill="#C3927D" d="M414.202 103.488l21.879-3.397-1.847 10.177-15.501 2.583zM413.078 141.178l9.639-18.674-27.432 3.932z"/><path fill="#858686" d="M439.933 59.399l4.312-8.174L456.321 73.1z"/><path fill="#505353" d="M448.447 66.531l-4.933 22.277 1.03 8.674L456.321 73.1z"/><path fill="#FAD8C7" d="M374.818 105.002l9.776-4.577-5.697-21.433-8.869 8.051z"/><path fill="#C3927D" d="M373.572 88.954l3.918-3.35 2.269 9.736z"/><path fill="#E8BCA5" d="M404.237 60.51l33.577-4.454-1.884-2.919z"/><path fill="#333" d="M347.593 84.72l17.979 27.016-.904 17.334 17.908 4.955-12.548-46.982-4.599-9.673z"/><path fill="#474749" d="M347.593 84.72l27.225 20.282-10.15 24.068zM393.134 104.004l-8.67-33.522 4.087-6.28-.402-15.175-23.805-10.904-16.751 46.597 22.435 2.323 8.734-7.917 7.351 27.053z"/><path fill="#858686" d="M451.053 84.097l1.789 10.5-7.138 12.501-1.16-9.616z"/><path fill="#717375" d="M438.885 28.406l-18.153 21.03-32.181 14.766-24.207-26.079z"/><path fill="#858686" d="M438.885 28.406l-50.334 35.796 61.417-14.34z"/><path fill="#B6C641" d="M428.869 187.853l-3.603 4.439-4.5-3.562 3.623-4.541zM427.865 203.859l-2.641 5.176-5.122-2.693 2.587-5.123z"/><path fill="#2B2B2B" d="M433.563 71.303c-1.656-.339-3.338.773-3.677 2.429-.349 1.707.773 3.338 2.428 3.677 1.707.349 3.328-.721 3.677-2.428.339-1.656-.72-3.329-2.428-3.678zM412.173 74.423c-1.708-.349-3.339.772-3.677 2.428-.349 1.708.721 3.328 2.429 3.677 1.707.349 3.328-.721 3.677-2.428.338-1.657-.722-3.328-2.429-3.677z"/><path fill="#A4B23C" d="M379.754 219.228l35.489 20.913 29.257-21.547v-7.604z"/><path fill="#FFF" d="M417.787 105.377l15.57-2.63-.345 3.461-13.91 2.145z"/><path fill="#97C16B" d="M500.442 120.122l-29.676 12.175 9.892 22.827 26.537-21.115z"/></g></svg>