<svg xmlns="http://www.w3.org/2000/svg" viewBox="0 0 900 350"><g fill="#010101"><path opacity=".1" d="M118.618 305.206l226.71-35.039 236.667 40.666L251.987 349.8zM580 311.5l198.5-22 112 24-143.5 37z"/></g><path fill="#C4C4C2" d="M392.5 55.5L425.833 22 898.5 1.5l-16 289-462-61.667z"/><path fill="#DDDDDC" d="M425.833 22l-3 208.833-405 38.667L1.5.5z"/><path fill="#A3A1A1" d="M538 46l266.5-3L788 150.5 535.5 130z"/><path fill="#8F8F8F" d="M658.5 112l37.333-47.5L750.5 80l3 102.5L673 174zM575.833 95.5l20.417-15.75 36.417 10.083L642 174.5l-62.167-3.667z"/><path fill="#AEADAE" d="M718.5 182.5l-.333-82.332 76.333-.335L791 188.5zM628.167 174.5L630.5 66.25l65.333-1.75 1 118zM540.167 81.167l56.083-1.417-2.083 89.417-58-3z"/><path fill="#C4C4C2" d="M578.902 92.792h6.667l-.008 7.042-6.641-.075zM726.568 112.125h6.667l-.007 7.043-6.642-.076zM746.818 112.25h6.667l-.007 7.043-6.642-.076zM767.068 112.375h6.667l-.007 7.043-6.642-.076zM726.568 132h6.667l-.007 7.042-6.642-.075zM746.818 132.875h6.667l-.047 7.313-6.602-.346zM767.068 133.25h6.667l.078 7.5-6.563-.25zM726.688 151.188l6.672.312-.047 7.438-6.602-.471zM746.943 152.375l6.682.375.063 7.438-6.875-.438zM767.25 153.813l6.61.312.015 7.5-6.664-.533zM635.568 75.458h11.667l-.013 7.469-11.622-.08zM653.902 75.635h11.667l-.014 7.468-11.622-.079zM672.235 75.812h11.667l-.013 7.468-11.622-.08zM636.068 95.254h11.667l-.013 7.468-11.622-.08zM654.402 95.43h11.667l-.014 7.468-11.622-.079zM672.735 95.607h11.667l-.013 7.468-11.622-.08zM636.568 114.165h11.667l-.013 7.468-11.622-.08zM654.902 114.342h11.667l-.014 7.468-11.622-.08zM673.235 114.518h11.667l-.013 7.469-11.622-.08zM636.068 133.253l11.557.486.097 6.982-11.597-.222zM655.068 133.783l11.62.287-.021 7.711-11.567-.609zM673.735 134.49l11.765.707-.167 7.379-11.566-.697zM635.735 151.811l11.682.751-.167 7.512-11.483-.875zM654.568 153.048l11.682.663v7.953l-11.65-1.227zM674.5 154.771l11.313.641.076 7.755-11.639-.884zM579.152 109.542h6.667l-.008 7.042-6.641-.075zM579.402 128.229l6.786.177-.125 7.157-6.643-.367zM579.652 147.042l6.661.333-.25 7.438-6.438-.313zM564.068 92.792h6.667l-.007 7.042-6.642-.075zM564.318 109.542h6.667l-.007 7.042-6.642-.075zM564.568 127.854l6.713.115-.053 6.928-6.634-.303zM564.813 145.938l6.672.437.015 7.438-6.664-.471zM549.235 92.792h6.667l-.008 7.042-6.641-.075zM549.485 109.542h6.667l-.008 7.042-6.641-.075zM549.735 127.292l6.64.208.019 6.834-6.55-.334zM549.61 144.729l6.703.459.062 7.125-6.747-.616z"/><path fill="#ECECEB" d="M529.75 39l-2.25 134.167 280 27 4-172L529.75 39zM782.5 179.167l-237-19.5 2.25-104.917L785 48l-2.5 131.167z"/><g><path opacity=".1" fill="#010101" d="M31.861 53.944l91.875 12.639-.972 114.236L27 192z"/><path fill="#ECECEB" d="M70.264 116.653l-34.028 45.208 5.833 24.306L132 168.181l-4.861-19.445z"/><path fill="#F7F7F7" d="M31.861 53.944l4.375 107.917 90.903-13.125L129.083 52z"/><path fill="#DDDDDC" d="M105.196 63.25L92.56 66.376l-6.643 11.985 10.161 13.548 17.065-.13 6.774-12.767-6.774-11.724z"/><path fill="#F7F7F7" d="M92.756 72.972l.621 11.386 12.835 5.59 9.178-6.97-1.656-11.869-11.128-4.244z"/><path fill="#DDDDDC" d="M42 82.167l34.333-1.5-.333 4-33.667 1.166zM42.167 90.5L76.5 89l-.333 4L42.5 94.167zM42.167 73.333l34.333-1.5-.333 4L42.5 77zM88.625 128.667l34.208-3.417-.083 3.833-33.792 3.25zM88.792 137l34.375-3.5-.25 3.333-33.792 3.834zM88.792 119.833l34.291-2.75-.25 3.75-33.708 2.667zM42.208 137.667l7.5-1 3-5.875 16.625-1.625 3.5 5.5 7.875-.375.875 7.625-38.75 2.75zM100.25 96.75v7l-39.5 2L62 125.625l2.5-.25-.375-17 38.25-2.5-.25-9z"/></g><g><path fill="#3F8F6F" d="M164.326 141.59l-9.176-5.506-18.721 6.607 8.076 89.566 48.086-11.012z"/><path fill="#54B08B" d="M192.224 133.882l-37.074 2.202 8.075 86.996 74.516-1.835z"/><path opacity=".1" fill="#010101" d="M192.224 133.882l-23.952 34.23 10.921 59.557 58.548-6.424z"/><path fill="#F5CBB3" d="M322.902 114.519l3.946 9.452 6.24 2.294 7.892-7.158zM321.8 105.617l-1.835-3.671 13.949-12.847 1.101 19.822z"/><path fill-rule="evenodd" clip-rule="evenodd" fill="#99C26B" d="M320.332 115.528l-24.961 28.356 9.636 25.604 28.081-43.223z"/><path fill-rule="evenodd" clip-rule="evenodd" fill="#738D56" d="M237.282 155.172l20.648-11.747 37.441.459 9.911 23.401-55.611 15.142z"/><path fill="#5A753D" d="M244.99 141.957l12.94 1.468 14.316 35.239-8.81 38.176-47.719-6.24-24.961-59.099z"/><path fill-rule="evenodd" clip-rule="evenodd" fill="#FEE5D6" d="M278.302 290.621l13.757 15.787-30.642 1.649-4.342-1.464 2.329-13.832zM293.151 301.06l42.208-.205-20.466-15.736-21.056 3.076z"/><path fill="#37785E" d="M426.422 277.463l-2.617 17.39-27.903 1.427-6.647-15.414z"/><path fill="#326C53" d="M395.902 296.28l-24.182-4.092-2.797-8.141 22.564-3.181z"/><path fill="#37785E" d="M502.675 312.921l-27.805-6.057-1.956-36.876 31.639.622zM179.158 291.968l-2.757 19.566-23.438 3.162 2.232-27.903z"/><path fill="#3F8F6F" d="M545.275 247.032l-15.812 13.804-27.142 12.006-239.167 20.09-16.38-10.673-13.438-11.092 124.991-21.391z"/><path fill="#74C7A5" d="M233.336 271.167l-.013 32.182 1.481 34.9 22.759-3.946 5.591-41.371zM545.275 247.032l-8.187 62.585-34.413 3.304-.354-40.079z"/><path fill="#3F8F6F" d="M124.992 243.695l2.444 17.561 24.41 27.163 59.155 7.861 14.881-14.021 7.454-11.092-46.89-24.135z"/><path fill="#54B08B" d="M233.336 271.167l1.468 67.082-18.781-7.369-5.022-34.6zM127.436 261.256l29.992 27.77-4.465 25.67-19.532-3.906z"/><path fill="#D0CECD" d="M112.039 214.061l231.778-15.998 214.293 14.509-324.787 28.647z"/><path opacity=".1" fill="#010101" d="M162.072 210.611l33.123-2.306 109.812 9.361-60.659 9.452-45.884-5.506z"/><path fill="#A3A3A2" d="M558.11 212.572l-1.674 34.46-323.1 24.135-5.036-20.089 5.023-12.091z"/><path opacity=".1" fill="#010101" d="M430.25 228l8.25 4.5V244l-61.5 2.5-5.186-18.923z"/><path fill="#919191" d="M112.039 214.061l121.284 24.926.013 32.18-118.931-11.38z"/><path fill="#738D56" d="M184.148 142.508l1.832 26.254 7.391 31.284 24.548 9.453-.184-53.226z"/><path fill="#FDDAC6" d="M277.682 42.903l-5.074-.804-3.094-3.156-15.345-5.941-14.479-9.096-22.586 9.53-19.924 4.578-3.466 13.675-7.734 16.089-1.424 4.578-2.537 3.59-.309 20.419-3.155 37.807-5.817 10.52 40.868 9.103 31.384-11.838 18.832-12.92 13.922-6.622 16.645-5.568-12.19-31.62-8.477-34.094.681-4.827z"/><path fill="#FEE5D6" d="M263.822 129.037l30.567-12.19-20.667-65.714-8.044-4.084-8.23-3.96-12.499-4.827-9.406 14.108-1.918-.989-3.836 7.92 18.13 75.367z"/><path fill="#E6E97B" d="M273.784 51.133l-4.27-12.19-29.824-15.037-1.919 14.542 7.178-.186 12.499 4.827 8.23 3.96z"/><path fill="#D8E157" d="M239.69 23.906l-42.51 14.108-11.2 29.764-3.961 8.168 11.943-4.146 11.88-3.96 11.881-4.208 12.127-4.208 5.693-7.054 9.406-14.108z"/><path fill="#B8C644" d="M229.85 59.424l-11.818 4.146-12.19 4.27-11.88 3.96-11.943 4.146-3.464 58.226 47.398-66.579z"/><path fill="#F5CAB4" d="M258.006 68.087l6.188 16.831 11.198-20.049zM253.859 68.83l-14.788 10.952 12.561 1.609 11.509 13.49zM229.85 59.424l18.069 75.244-2.599 2.784-6.868.928-4.827-6.002-3.403-8.601-2.042-22.647z"/><path fill="#C3927D" d="M267.411 93.581l-1.052 4.518-3.218-3.218z"/><path fill="#B8C644" d="M253.859 68.83l-13.86 6.126-.928 4.826zM258.006 68.087l16.025-5.816 1.361 2.598z"/><path fill="#C3927D" d="M238.452 138.38l4.336 17.342 6.332-14.316 14.702-12.369-15.903 5.631z"/><path fill="#FFF1E9" d="M253.859 68.83l9.282 26.051 4.27-1.3-9.405-25.494z"/><path fill="#E6E97B" d="M226.734 59.673l-9.167 90.053-7.907 10.493 4.721 21.042 15.346 1.299 7.096-31.977-6.76-7.892.159-18.914-.433-64.476z"/><path fill="#D8E157" d="M223.849 87.702l-37.869 81.06-23.081-12.066 15.656-22.524 47.398-66.579zM230.222 123.777l18.13 32.61 13.861 25.617-32.486.556z"/><path fill="#B8C644" d="M223.849 87.702l-37.869 81.06 28.401 12.499 3.218-31.99 5.508-24.38z"/><path fill="#9AC16D" d="M281.58 100.821l-12.561 8.724-16.335.433 17.635 4.393z"/><path fill="#59763E" d="M281.58 100.821l-5.136 1.855-7.115 1.176-4.579 1.547-5.384 3.094-6.682 1.485 16.335-.433z"/><path fill="#36785E" d="M277.682 42.903l-8.168-3.96-4.021 8.167 8.291 4.023z"/><path fill="#55B08A" d="M265.678 47.049l-8.23-3.96-3.96 8.167 8.292 4.023z"/><path fill="#36785E" d="M253.797 51.133l-8.29-4.023-3.899 8.23 8.168 3.961z"/><path fill="#55B08A" d="M241.794 55.34l-8.169-3.959-4.021 8.229 8.229 3.96z"/><path fill="#36785E" d="M229.85 59.424l-8.23-4.022-3.897 8.23 8.23 3.961z"/><path fill="#55B08A" d="M218.032 63.57l-8.167-4.022-4.023 8.292 8.292 3.898z"/><path fill="#36785E" d="M206.152 67.593l-8.291-3.961-3.899 8.168 8.23 4.022z"/><path fill="#55B08A" d="M194.21 71.738l-8.23-3.96-3.961 8.168 8.169 4.022z"/><path fill="#59763E" d="M229.913 83.556l-6.064 4.146-1.424 14.48 7.612-5.136z"/><path fill="#9AC16D" d="M230.037 97.046l-7.612 5.136-1.051 10.519 8.724-4.827z"/><path fill="#59763E" d="M230.098 107.874l-8.724 4.827-1.238 11.695 10.024-5.57z"/><path fill="#9AC16D" d="M230.16 118.826l-10.024 5.57-1.299 12.932 11.323-6.497z"/><path fill="#59763E" d="M230.16 130.831l-11.323 6.497-1.238 11.943 12.499-6.931z"/><path fill="#2A2A2A" d="M271.247 72.543c-1.918 0-3.465 1.485-3.465 3.403s1.547 3.465 3.465 3.465 3.527-1.547 3.527-3.465c0-1.919-1.609-3.403-3.527-3.403zM248.476 80.772c-1.919 0-3.528 1.608-3.528 3.527s1.609 3.465 3.528 3.465c1.918 0 3.465-1.546 3.465-3.465 0-1.918-1.547-3.527-3.465-3.527z"/><path fill="#ECECEB" d="M265.914 208.856l1.376-42.948 49.555-3.578-11.838 55.336-14.729 1.652z"/><path fill="#F5CBB3" d="M263.528 210.875l13.673-12.848 16.794 4.13-3.304 17.069-13.582.734z"/><path fill="#FEE5D6" d="M250.221 209.04l7.892-5.965 19.088-5.048-.092 21.933-16.059-.551z"/><path fill="#99C26B" d="M258.113 203.075l-64.742-3.029 4.542 20.648 63.137-1.285z"/><path fill-rule="evenodd" clip-rule="evenodd" fill="#F5CBB3" d="M334.464 288.052l-16.885 13.031h20.006zM290.232 293.558l-16.151 13.949 17.978-1.099z"/><path fill="#ECECEB" d="M327.857 61.843l-1.583 58.709 45.081 6.355 7.984-63.412z"/><path fill="#D0CECD" d="M331.39 69.966l41.709 1.927-.551 3.166-41.433-2.202zM330.289 80.565l41.708 1.928-.55 3.166-41.433-2.203zM329.876 93.505L370.5 96l-.667 3.167-40.232-2.772zM330.014 105.343l38.319 3.907-.666 3.5-37.929-4.517z"/><path opacity=".1" fill="#010101" d="M326.205 104.149l.069 16.403 10.76 1.583-2.019-19.455z"/><path fill="#FEE5D6" d="M326.274 120.552l-5.942-5.024-.367-13.582 15.234-5.139-.184 5.873-6.607 4.772 1.652 8.076z"/><path fill="#DDDDDC" d="M402.923 215.005l36.157 7.341 2.386 13.949-62.402 5.506-7.25-14.224z"/><path fill="#ECECEB" d="M337.401 215.372l47.352-7.709 54.327 14.683-67.266 5.231z"/></g><g><path fill="#54B08B" d="M450.568 206.182l24.522-5.45-51.521-7.431-45.276 5.588 48.248 13.485z"/><path fill="#DDDDDC" d="M436.254 208.797l-16.596-2.973-41.365-6.935-.744 10.155 41.862 8.175z"/><path fill="#ECECEB" d="M419.411 217.219l55.872-5.335-.193-11.152-55.432 5.092z"/><g><path fill="#54B08B" d="M451.486 192.967l31.23-5.998-50.932-7.983-45.691 5.312 41.366 14.862z"/><path fill="#C4C4C2" d="M444.054 194.206l-16.595-2.973-41.366-6.935-.697 11.068 41.815 7.261z"/><path fill="#ECECEB" d="M427.211 202.627l56.193-5.059-.688-10.599-55.257 4.264z"/></g><g><path fill="#54B08B" d="M450.659 180.028l24.523-5.45-51.057-7.453-44.992 3.67 47.5 15.425z"/><path fill="#C4C4C2" d="M444.054 180.991l-16.595-2.972-48.326-7.224-.138 10.324 48.216 8.294z"/><path fill="#ECECEB" d="M427.211 189.413l47.934-3.82.037-11.015-47.723 3.441z"/></g></g><g><path fill="#74C7A5" d="M639.5 292.833l10.333 22.667 34.334-7-13.334-19.333z"/><path fill="#3F8F6F" d="M846.167 294.167L840.5 315.25l-21-2.25-6-23z"/><path fill="#74C7A5" d="M740.5 304.833l15 29.667 24.5-6 6.25-16.5 50-9.25 4.25 12.5 21.25-4.5.75-50.75L730 275z"/><path fill="#3F8F6F" d="M621.833 253.5l4.667 57.333 23.333 4.667 2.667-10.667 73.333 13.667 2 11.667L755.5 334.5l2.333-49.667z"/><path fill="#A3A3A2" d="M762.5 240.167l116.667 6.666v24l-121.334 14-31.333-32.666z"/><path fill="#919191" d="M721.167 241.5l-114 .667-.667 23.333 151.333 19.333-.666-23.333z"/><path fill="#DDDDDC" d="M741.833 233.5l-134.666 8.667 150 19.333 122-14.667z"/></g><g><path opacity=".1" fill="#010101" d="M693.667 238.417l48.5 4.25 18.5-1.5 66.5 8.666-45.5 5.584-42-5-19.25 2.25-64-8.75zM737.75 255l6.313-.875 9.187 1.5-9.875 1.375z"/><path fill="#3F8F6F" d="M754.661 244.721l-7.971-6.588 13.064-5.623 49.051 2.826-24.078 10.784z"/><path fill="#6F9D51" d="M793.697 237.64l-4.328-3.621-4.097 2.922.205 5.761 7.503 2.134z"/><path fill="#99C26B" d="M799.328 240.863l-4.602-8.734-5.357 1.89.222 12.251zM775.253 239.09l4.563-3.818 5.661 7.43-10.794 2.859z"/><path fill="#6F9D51" d="M774.683 245.561l-4.209-3.704 2.156-5.537 7.186-1.048z"/><path fill="#99C26B" d="M759.104 242.411l.65-9.901 6.905.046 3.815 9.301z"/><path fill="#6F9D51" d="M755.423 243.372l-1.668-4.779 5.999-6.083 4.262 10.119z"/><path fill="#74C7A5" d="M779.756 246.193l3.415 6.125L805.5 249l3.305-13.664-23.328 7.366z"/><path fill="#5A753D" d="M693.375 218.875l9.75-10-20-3.625-14.167 2.75L694 227.5z"/><path fill="#54B08B" d="M665 200.75l14.75-5.375 10.75 23.75-3.625.25-8.75-19.375-12 5z"/><path fill="#99C26B" d="M677.333 232.667L683.292 211l19.833-2.125-5.875 34.25L683.667 245z"/><path fill="#6F9D51" d="M668.958 208l3.667 35.25 11.042 1.75-.375-34z"/><path fill="#3F8F6F" d="M715.417 244.083l-7-14.5 17.25-4 14 5.25z"/><path fill="#74C7A5" d="M716.667 236.583l11-4.75 12-1-2.25 16-13.75 3z"/><path fill="#54B08B" d="M708.417 229.583l19.25 2.25-4 18-13.5-3zM746.69 238.133l38.787 4.569-2.306 9.616-33.769-4.574z"/><path fill="#6F7273" d="M767.625 220.559l6.458.816 4.862-4.281-7.028-.594z"/><path fill="#ECECEB" d="M776.439 215.382l-5.718 3.761 2.196-5.393zM771.09 220.535l6.368 1.84.851-2.775z"/><g><path fill="#6F7273" d="M759.729 232.545l3.19.521 4.691-.633-5.238-1.867z"/><path fill="#ECECEB" d="M766.591 232.051l-4.219-1.485 6.329-.664z"/></g><g><path fill="#6F7273" d="M818.903 204.543l1.994 3.028 4.099.436-2.952-3.326z"/><path fill="#ECECEB" d="M824.715 206.232l-3.944-.932 3.937-2.925zM820.322 206.025l-.197 4.6 3.534-1.873z"/></g><g><path fill="#6F7273" d="M703.88 201.411l-3.137-3.227-5.099.424 4.375 3.367z"/><path fill="#ECECEB" d="M696.379 202.648l5.047-1.724-2.965 4.016zM701.805 199.935l.788-4.265-3.541.209z"/></g><g><path fill="#DDDDDC" d="M671.697 194.309l-6.155-.059 3.25 2.583z"/><path fill="#6F7273" d="M675.5 196l-3.803-1.691-6.364 2.483 5.495 2.066z"/><path fill="#ECECEB" d="M672.083 194.667l-6.833.687 3.625 2.188z"/></g><g><path fill="#DDDDDC" d="M745.852 251.736l-5.728-2.254 2.112 3.574z"/><path fill="#6F7273" d="M748.799 254.675l-2.947-2.939-6.831.045 4.393 3.894z"/><path fill="#ECECEB" d="M746.085 252.209l-6.628-1.801 2.604 3.339z"/></g></g></svg>