<svg xmlns="http://www.w3.org/2000/svg" xmlns:xlink="http://www.w3.org/1999/xlink" viewBox="0 0 900 350"><path fill="#DDDDDC" d="M815.708 267.5l55.582 33 26.54-7.5 2.503-282L873.293.5z"/><path fill="#C4C4C3" d="M430.471 89.5l18.694-73.333L873.293.5l-2.003 300-435.478-49.667zM87.296 280.833L37.889 311.5 7.845 302 .333 8 31.212.5z"/><path fill="#DDDDDC" d="M449.165 16.167l-3.338 234L37.889 311.5 31.212.5z"/><path fill="#CFCECD" d="M812.203 51.5L811.201 207l-268.898-7L553.82 51.5z"/><path fill="#8F8F8F" d="M678.639 139.664l14.553 61.305 45.478-.909 6.266-95.893-38.555 5.525z"/><path fill="#DDDDDC" d="M694.556 133.306l14.327-22.473 66.766-7.333-65.431-1.667-75.612 6.667z"/><path fill="#DDDDDC" d="M785.058 123.77l13.644-18.468 20.01-7.417-50.074-1.385-40.883 5.926z"/><path fill="#A3A2A2" d="M727.755 205.055V102.426l75.495 1.968 1.819 102.478zM633.438 207.75l1.168-99.25 74.277 2.333-.167 94.334z"/><path fill="#C4C4C3" d="M683.345 122.5l16.024.667v19.083l-16.024-.583z"/><path fill="#8F8F8F" d="M685.432 125.083l11.6.417.042 4-11.684-.542zM685.432 131.208l11.6.584.125 8.375-11.725-.625z"/><path fill="#C4C4C3" d="M735.255 115.833l16.024.542.042 12.833-16.066-.839z"/><path fill="#8F8F8F" d="M737.342 117.523l11.6.272.042 5.455-11.684-.458zM737.383 124.25l11.601.375.084 2.763-11.685-.638z"/><path fill="#C4C4C3" d="M756.766 116.75l16.024.542.042 12.833-16.066-.84z"/><path fill="#8F8F8F" d="M758.853 118.44l11.6.272.042 5.455-11.684-.459zM758.895 125.167l11.6.375.084 2.762-11.684-.637z"/><path fill="#C4C4C3" d="M777.818 117.917l16.024.541.042 12.834-16.066-.84z"/><path fill="#8F8F8F" d="M779.905 119.606l11.6.273.042 5.454-11.684-.458zM779.947 126.333l11.6.375.084 2.763-11.684-.638z"/><path fill="#C4C4C3" d="M735.255 135.583l16.024.542.042 12.833-16.066-.839z"/><path fill="#8F8F8F" d="M737.342 137.273l11.6.272.042 5.455-11.684-.458zM737.383 144l11.601.375.084 2.763-11.685-.638z"/><path fill="#C4C4C3" d="M756.766 136.5l16.024.542.042 12.833-16.066-.84z"/><path fill="#8F8F8F" d="M758.853 138.19l11.6.272.042 5.455-11.684-.459zM758.895 144.917l11.6.375.084 2.762-11.684-.637z"/><path fill="#C4C4C3" d="M777.818 137.667l16.024.541.042 12.834-16.066-.84z"/><path fill="#8F8F8F" d="M779.905 139.356l11.6.273.042 5.454-11.684-.458zM779.947 146.083l11.6.375.084 2.763-11.684-.638z"/><path fill="#C4C4C3" d="M735.255 155.333l16.024.542.042 12.833-16.066-.839z"/><path fill="#8F8F8F" d="M737.342 157.023l11.6.272.042 5.455-11.684-.458zM737.383 163.75l11.601.375.084 2.763-11.685-.638z"/><path fill="#C4C4C3" d="M756.766 156.25l16.024.542.042 12.833-16.066-.84z"/><path fill="#8F8F8F" d="M758.853 157.94l11.6.272.042 5.455-11.684-.459zM758.895 164.667l11.6.375.084 2.762-11.684-.637z"/><path fill="#C4C4C3" d="M777.818 157.417l16.024.541.042 12.834-16.066-.84z"/><path fill="#8F8F8F" d="M779.905 159.106l11.6.273.042 5.454-11.684-.458zM779.947 165.833l11.6.375.084 2.763-11.684-.638z"/><path fill="#C4C4C3" d="M735.255 175.083l16.024.542.042 12.833-16.066-.839z"/><path fill="#8F8F8F" d="M737.342 176.773l11.6.272.042 5.455-11.684-.458zM737.383 183.5l11.601.375.084 2.763-11.685-.638z"/><path fill="#C4C4C3" d="M756.766 176l16.024.542.042 12.833-16.066-.84z"/><path fill="#8F8F8F" d="M758.853 177.69l11.6.272.042 5.455-11.684-.459zM758.895 184.417l11.6.375.084 2.762-11.684-.637z"/><path fill="#C4C4C3" d="M777.818 177.167l16.024.541.042 12.834-16.066-.84z"/><path fill="#8F8F8F" d="M779.905 178.856l11.6.273.042 5.454-11.684-.458zM779.947 185.583l11.6.375.084 2.763-11.684-.638z"/><path fill="#C4C4C3" d="M662.147 122l16.024.667v19.083l-16.024-.583z"/><path fill="#8F8F8F" d="M664.234 124.583l11.6.417.042 4-11.684-.542zM664.234 130.708l11.6.584.125 8.375-11.725-.625z"/><path fill="#C4C4C3" d="M641.199 121.417l16.024.666v19.084l-16.024-.584z"/><path fill="#8F8F8F" d="M643.286 124l11.6.417.042 4-11.684-.542zM643.286 130.125l11.6.583.125 8.375-11.725-.625z"/><path fill="#C4C4C3" d="M683.345 149.75l16.024.667V169.5l-16.024-.583z"/><path fill="#8F8F8F" d="M685.432 152.333l11.6.417.042 4-11.684-.542zM685.432 158.458l11.6.584.125 8.375-11.725-.625z"/><path fill="#C4C4C3" d="M662.147 149.25l16.024.667V169l-16.024-.583z"/><path fill="#8F8F8F" d="M664.234 151.833l11.6.417.042 4-11.684-.542zM664.234 157.958l11.6.584.125 8.375-11.725-.625z"/><path fill="#C4C4C3" d="M641.199 148.667l16.024.666v19.084l-16.024-.584z"/><path fill="#8F8F8F" d="M643.286 151.25l11.6.417.042 4-11.684-.542zM643.286 157.375l11.6.583.125 8.375-11.725-.625z"/><path fill="#C4C4C3" d="M683.345 176.708l16.024.667v19.083l-16.024-.583z"/><path fill="#8F8F8F" d="M685.432 179.292l11.6.416.042 4-11.684-.541zM685.432 185.417l11.6.583.125 8.375-11.725-.625z"/><path fill="#C4C4C3" d="M662.147 176.208l16.024.667v19.083l-16.024-.583z"/><path fill="#8F8F8F" d="M664.234 178.792l11.6.416.042 4-11.684-.541zM664.234 184.917l11.6.583.125 8.375-11.725-.625z"/><path fill="#C4C4C3" d="M641.199 175.625l16.024.667v19.083l-16.024-.583z"/><path fill="#8F8F8F" d="M643.286 178.208l11.6.417.042 4-11.684-.542zM643.286 184.333l11.6.584.125 8.375-11.725-.625z"/><path fill="#ECECEB" d="M574.35 43l-2.003 18 223.999-2.167.668 138.667-147.678-8.125-.542.792-84.125 2-1.124-70.342-10.226 80.342 267.73 16.666L823.219 36z"/><path fill="#DDDDDC" d="M696.531 80.167l-20.029 5-35.386-4.667 32.047 14.333 53.747-6 40.059-3.333-53.078-7.333z"/><path fill="#ECECEB" d="M766.969 85.5l-50.408-12.667-38.724 7-36.721.667 36.053 9.667 44.733-10z"/><g><path fill="#738D56" d="M293.852 137.583l-17.276-12.25-15.273 5.5 5.759 61.25 35.553 5.5z"/><path fill="#709D52" d="M276.576 125.333l35.052-2h25.788l6.009 86.75-59.088 1zM595.298 137.583l17.276-12.25 15.272 5.5-5.758 61.25-35.553 5.5z"/><path fill="#738D56" d="M612.574 125.333l-35.052-2h-25.789l-6.008 86.75 59.087 1z"/></g><g><path fill="#377A5E" d="M281.009 235.377l63.509 19.155 43.841-4.959-19.441-84.828-62.945-10.404-16.02 17.693-18.497 57.33z"/><path fill="#51AF89" d="M280.197 165.243l-16.526 70.133 22.647 4.89 9.281-70.97-5.994-11.81z"/><path fill="#72C5A3" d="M367.949 157.971l3.33-2.814 19.663 95.668-46.169-5.364z"/><path fill="#59763E" d="M350.341 146.204l17.538 18.58-20.511 33.015-33.051-1.862-9.589-20.327-1.428-10.01-8-18.943z"/><path fill="#72C5A3" d="M332.617 147.034l1.066 6.136-6.532 3.141-25.633-7.788-5.297-4.45 1.661-10.276 14.467-3.81 12.76 2.971z"/><path fill="#343433" d="M297.295 124.325l-12.462-11.415 5.258-13.821 9.439 4.645z"/><path fill="#72C5A3" d="M332.617 147.034l9.098 5.781 16.062-5.143 7.7-21.144-20.505 1.188-21.857 7.266z"/><path fill="#96C06B" d="M338.666 171.351l-7.493-9.686-4.022-5.354 14.8-3.806 9.786 4.129z"/><path fill="#D7E058" d="M341.951 152.505l-5.523 9.307-9.277-5.501 5.466-9.277z"/><path fill="#738B57" d="M338.666 171.351l29.213-6.567-20.511 33.015-16.19 6.678-22.435 4.899-5.134-11.817 1.119-21.949z"/><path fill="#59763E" d="M336.873 191.741l3.998 12.045 19.883-2.063 7.125-36.939-29.213 6.567z"/><path fill="#738B57" d="M341.951 152.505l-3.285 18.846 29.213-6.567.07-6.813 4.045-12.801-6.517-18.642z"/><path fill="#C3927D" d="M302.392 246.889l19.753 7.67 3.337-7.67zM340.023 254.651l21.123-7.671h-20.3z"/><path fill="#D7E058" d="M312.177 202.285l-8.797.622-.988 43.982h23.09l6.722-14.609 7.453-5.982-3.683-19.342z"/><path fill="#B6C640" d="M360.754 201.723l-21.031 2.636-7.564 27.784.045.137 8.642 14.7h20.3z"/><path fill="#96C06B" d="M340.117 202.058l-3.244-10.317-6.025 10.555z"/><path fill="#FDE4D5" d="M347.861 123.196l-14.957 10.195-.287 13.643-20.268-17.047 4.363-28.772-3.249-18.233 5.165-20.808 26.083-6.236 19.707 8.442 3.212 5.826 1.573 51.243z"/><path fill="#F4CAB3" d="M305.733 92.009l6.616 37.978 20.268 17.047 5.474-8.511-9.093-14.361-3.58-48.699-2.467-5.126-9.606 12.086z"/><path fill="#848585" d="M339.308 53.268l29.838-9.828-9.308-5.082-55.724 7.638 10.547 13.653z"/><path fill="#343433" d="M371.987 63.504l-1.413 5.488 10.118 14.287-12.269 12.526-.793-25.599-2.962-5.704 2.971-3.208z"/><path fill="#FFF1E8" d="M356.199 98.668l-6.771.447-1.64-21.516 6.77-.447z"/><path fill="#C3927D" d="M356.199 98.668l-2.665 2.823-4.106-2.376zM307.925 104.394l8.787-3.179-7.088 13.08z"/><path fill="#474749" d="M332.062 76.074l2.464 2.122 6.094-4.226 4.422 1.327.277-.917-4.492-2.683zM354.336 73.606l.222 3.546 6.108-4.269 3.253 1.405.21-.699-3.992-2.915z"/><path fill="#F4CAB3" d="M334.526 78.196l14.419 14.434-1.157-15.031-2.746-2.302-4.422-1.327zM355.372 87.456l8.547-13.168-3.253-1.405-6.108 4.269z"/><path fill="#C3927D" d="M342.21 107.371l18.975-1.07-1.378 2.56-16.144.917zM338.091 138.523l9.77-15.327-23.961 1.248z"/><path fill="#848585" d="M367.63 70.206l4.357-6.702 8.705 19.775z"/><path fill="#505353" d="M374.415 77.009l-5.992 18.796.211 7.549 12.058-20.075z"/><path fill="#F9D7C6" d="M307.925 104.394l8.787-3.179-3.24-18.897-8.275 6.24z"/><path fill="#C3927D" d="M308.103 90.479l3.641-2.578 1.195 8.559z"/><path fill="#E7BBA4" d="M336.764 68.38l29.3-1.218-1.396-2.66z"/><path fill="#343433" d="M286.034 84.81l13.393 24.661-2.132 14.854 15.054 5.662-7.152-41.429-3.211-8.686z"/><path fill="#474749" d="M286.034 84.81l21.891 19.584-10.63 19.931zM323.797 104.962l-4.86-29.538 4.014-5.087.838-13.097-19.675-11.244-18.08 38.814 19.163 3.748 8.148-6.135 4.228 23.865z"/><path fill="#848585" d="M375.292 92.337l.722 9.179-7.131 10.207-.249-8.369z"/><path fill="#717275" d="M369.146 43.44l-17.294 16.691-28.901 10.206-18.837-24.341z"/><path fill="#848585" d="M369.146 43.44l-46.195 26.897 54.077-7.561z"/><path fill="#B6C640" d="M347.133 194.772l-3.48 3.628-3.575-3.504 3.421-3.598z"/><path fill="#2A2B2A" d="M361.209 79.958c-1.401-.421-2.939.406-3.36 1.805-.434 1.443.406 2.934 1.807 3.355 1.445.434 2.926-.362 3.36-1.804.421-1.4-.362-2.922-1.807-3.356zM342.522 80.977c-1.445-.434-2.939.405-3.36 1.804-.434 1.443.362 2.921 1.807 3.355 1.445.434 2.926-.361 3.36-1.804.421-1.4-.363-2.921-1.807-3.355z"/><path fill="#A4B23C" d="M303.609 197.559l-.229 5.348 32.116 17.457 25.258-18.641z"/><path fill="#709D52" d="M365.477 126.528l2.096 38.562-1.53 9.321 18.09-14.703-.875-2.334z"/></g><g><path fill-rule="evenodd" clip-rule="evenodd" fill="#FFE6D6" d="M472.509 127.12l-6.656 1.031-6.427-12.949 9.296-5.042 5.509 6.761z"/><path fill-rule="evenodd" clip-rule="evenodd" fill="#F5CAB3" d="M482.035 127.005l-1.607-5.157-6.197-4.927-8.551 11.23 9.239 7.908 9.985-.115z"/><path fill-rule="evenodd" clip-rule="evenodd" fill="#FFE6D6" d="M488.232 148.435l-2.984-19.367.459-8.366-6.198-7.563-2.295 2.063 3.214 6.647-2.295 5.844s4.705 8.366 4.705 8.709 5.394 12.033 5.394 12.033z"/><path fill-rule="evenodd" clip-rule="evenodd" fill="#ECECEB" d="M536.435 141.559l-8.007-12.06-42.95 20.999 24.904 8.079 8.773-.577z"/><path fill="#8F8F8F" d="M536.722 158.577l1.466 2.421 2.527 38.717-9.458-9.54L519.155 158z"/><path fill-rule="evenodd" clip-rule="evenodd" fill="#B3889D" d="M578.074 49.473l14.98 18.694 25.061 18.079-18.179-37.798z"/><path fill-rule="evenodd" clip-rule="evenodd" fill="#96637C" d="M611.233 136.344l14.717-18.846-19.141.162-5.837 4.43zM578.074 49.473l40.041 36.773-27.308.056z"/><path fill-rule="evenodd" clip-rule="evenodd" fill="#543042" d="M571.949 113.632l39.284 22.712-10.67-43.941z"/><path fill-rule="evenodd" clip-rule="evenodd" fill="#734C5F" d="M618.115 86.246l-20.58-3.616-11.929 8.878-10.111 11.163-3.546 10.961z"/><path fill-rule="evenodd" clip-rule="evenodd" fill="#543042" d="M597.535 82.63l-20.055 20.084 5.3-19.028z"/><path fill-rule="evenodd" clip-rule="evenodd" fill="#DDDDDC" d="M540.723 128.124l-2.535 32.874L519.155 158l9.273-28.501z"/><path fill-rule="evenodd" clip-rule="evenodd" fill="#FFE6D6" d="M516.461 55.154l-3.324 4.332-2.438 54.187 21.885 2.459 15.023 21.65 15.413-15.851 14.809-35.549-5.375-41.342-44.872-5.645z"/><path fill-rule="evenodd" clip-rule="evenodd" fill="#F5CAB3" d="M547.693 137.754l-5.311-5.324 1.331-.412 6.508-11.562 4.35-55.169 5.276-8.317 25.662 29.894-8.028 15.847-2.702 2.787-2.83 8.135-7.077 13.97-6.914 6.979z"/><path fill-rule="evenodd" clip-rule="evenodd" fill="#C4937D" d="M558.289 119.028l-9.919 19.322-4.658-6.333-2.989-3.893-8.053-12.02z"/><path fill-rule="evenodd" clip-rule="evenodd" fill="#B3889D" d="M559.847 56.97l-23.773-1.013-9.118-5.418-.204-12.981 47.666 5.685-3.985 13.426z"/><path fill-rule="evenodd" clip-rule="evenodd" fill="#C4937D" d="M577.48 102.714l-4.986-3.77-.545 14.688z"/><path fill-rule="evenodd" clip-rule="evenodd" fill="#FFE6D6" d="M577.48 102.714l-8.061-6.093 8.477-18.626 7.613 8.869z"/><path fill-rule="evenodd" clip-rule="evenodd" fill="#C4937D" d="M578.158 83.853l-3.169 7.798 7.899-4.185z"/><path fill-rule="evenodd" clip-rule="evenodd" fill="#FFF" d="M567.214 100.83l3.351 1.773 3.752-7.119-3.531-1.868z"/><path fill="#C4937D" d="M523.528 93.846l3.206 3.28 4.404-2.92z"/><path fill="#734C5F" d="M549.908 69.466l-3.777.448-3.261-2.197-5.138 1.587 6.373-3.752zM524.994 69.582l-3.036-.068-3.176-3.762-3.974 1.228 4.846-3.172z"/><path fill="#F5CAB3" d="M515.432 86.806l8.446 2.731.95-3.881zM549.731 88.462l-18.334 2.566-1.418-4.891zM550.334 76.005l-14.726 4.419.396-5.116zM515.293 74.323l6.043 5.2.519-4.934z"/><path fill-rule="evenodd" clip-rule="evenodd" fill="#96637C" d="M526.752 37.558l9.323 18.399-19.528-.832z"/><path fill-rule="evenodd" clip-rule="evenodd" fill="#734C5F" d="M577.896 77.995l-7.11 15.621-6.664-5.334 7.061-18.107-11.336-13.205 14.571-13.727 23.117 39.387-8.275 2.914-3.751 1.32z"/><path fill-rule="evenodd" clip-rule="evenodd" fill="#9075A0" d="M540.723 128.124l8.451 8.851-12.004 11.163-6.117-1.002 5.955-11.536.23-.687z"/><path fill-rule="evenodd" clip-rule="evenodd" fill="#ECECEB" d="M540.723 128.124l-2.535 32.874-11.394-17.949z"/><path fill-rule="evenodd" clip-rule="evenodd" fill="#594165" d="M539.029 173.89l-.839-12.869 9.836-11.669 5.832 12.03 6.614 29.453-.099.227-19.658 8.653z"/><path fill="#594165" d="M577.896 77.995l4.029 4.694-.085-7.664-27.916-2.154-.64 7.49z"/><path fill="#FFF1E8" d="M523.528 93.846l7.61.36 1.814-22.355-7.608-.359z"/><path fill="#594165" d="M525.065 74.757l7.632.402-.96 12.404 20.844 1.04 1.344-15.732-47.834-2.292-1.215 15.712 19.123.934 1.066-12.468zm10.233 9.675l.706-9.124 14.33.696-.781 9.139-14.255-.711zm-26.156-10.396l12.612.59-.781 9.138-12.536-.605.705-9.123z"/><path fill-rule="evenodd" clip-rule="evenodd" fill="#DDDDDC" d="M564.872 127.603l-8.638 22.588-4.252 11.081 16.358 21.848 16.627 70.757 23.363-7.465-34.481-58.212 4.705-22.117 5.263-28.535z"/><path fill-rule="evenodd" clip-rule="evenodd" fill="#8F8F8F" d="M551.982 161.272l26.572 4.811-.702 23.869-17.324 1.043v-.001z"/><path fill-rule="evenodd" clip-rule="evenodd" fill="#ECECEB" d="M564.872 127.603l8.767 16.739-21.657 16.93 6.609-21.142z"/><path fill-rule="evenodd" clip-rule="evenodd" fill="#9075A0" d="M549.174 136.975l4.135 5.86 5.386.92 6.177-16.152z"/><path fill-rule="evenodd" clip-rule="evenodd" fill="#795D88" d="M539.361 145.685l9.813-8.71 9.521 6.78-6.713 17.517-13.794-.274z"/><path fill-rule="evenodd" clip-rule="evenodd" fill="#2B2B2B" d="M537.571 81.365c.329 1.063 1.459 1.658 2.524 1.329 1.064-.329 1.66-1.457 1.331-2.52-.329-1.063-1.459-1.658-2.523-1.329-1.065.329-1.661 1.457-1.332 2.52zM513.935 80.075c.329 1.063 1.459 1.658 2.524 1.329 1.064-.329 1.66-1.457 1.331-2.52-.329-1.063-1.459-1.658-2.523-1.329-1.065.329-1.661 1.457-1.332 2.52z"/><path fill="#FFF" d="M524.958 102.052l-4.591.372 4.16 5.272 6.686.429 3.863-4.612z"/><path fill="#9075A0" d="M530.782 107.581l-6.14-.688-4.313-4.66-1.511.048 4.332 6.904 8.809.889 5.164-6.37-2.2-.248z"/><path fill="#594165" d="M518.818 102.281l4.369-.775 2.043-.715 4.132.287 1.851.902 5.91 1.724-10.157-.707z"/><path fill-rule="evenodd" clip-rule="evenodd" fill="#A3A3A3" d="M485.248 129.068l25.134 29.509-20.313 2.235-15.15-24.753z"/></g><g><path opacity=".1" fill="#2B2B2B" d="M196.123 299.5l267.063-42 245.029 35.333L443.156 350.5z"/><path fill="#3F8F6F" d="M639.019 280.957l-10.789 16.96-13.772-2.139-19.893-26.74z"/><path fill="#36785D" d="M264.236 276.149l16.68 27.351 11.432-2.914 8.799-24.141z"/><path fill="#54B08B" d="M647.167 207.156l-5.05 86.177-13.887 4.584-10.329-13.752-151.475 29.29-8.722 18.107L440.259 335l-49.317-84.175z"/><path fill="#3F8F6F" d="M253.831 233.366l9.028 66.39 18.057 3.744 1.256-19.721 132.379 26.009 6.887 20.628L440.259 335l5.509-56.382z"/><path fill="#D6D6D6" d="M520.138 193.357l129.324-4.024 20.029 52-223.723 37.285-24.33-71.967z"/><path fill="#A3A2A2" d="M341.559 197.483l-106.711-2.817-9.348 46 220.268 37.952L447.663 222z"/><path fill="#ECECEB" d="M447.162 169.75l-212.314 24.916 213.649 26.667 200.965-32z"/><path opacity=".1" fill="#2B2B2B" d="M394.167 176.166l-119.761 13.75 77.712 7.567 63.639-12.262zM547.477 179.416l-33.466-3.333 1.536 19.452 60.425-11.766z"/><path fill="#738B57" d="M301.518 148.523l12.65 32.152-21.729 9.626-12.242-25.058 11.936-19.864z"/><path fill="#51AF89" d="M301.518 148.523l-3.636-14.726-17.685 31.446z"/><path fill="#F5CAB3" d="M347.833 180.37l2.296-6.571 15.914.612-.918 14.515-11.477 2.751z"/><path fill="#FDE4D5" d="M332.837 193.205l20.811-1.528-3.519-17.878-12.089 5.348-11.018 5.042z"/><path fill="#96C06B" d="M332.837 193.205l-40.398-2.904 18.975-16.349 26.626 5.195z"/><path fill="#ECECEB" d="M583.795 137.892c.612 1.375 12.242 23.531 12.242 23.531l-15.914 27.198-16.986-10.849 20.658-39.88z"/><path fill="#F5CAB3" d="M530.888 187.36l-7.078-7.181-12.203 5.806 3.94 9.55 12.051.573z"/><path fill="#FFE6D6" d="M542.479 185.717l-5.356-3.132-13.313-2.406 3.788 15.929 12.739.764z"/><path fill="#A3A3A3" d="M537.123 182.585l27.889-8.652 15.111 14.688-39.786 8.251z"/><path fill="#F5CAB3" d="M412.065 172.099l11.324-6.875 10.253 6.109-5.204 6.878-12.968.172zM405.026 172.615l-3.29 7.277 14.021 5.329 1.147-2.865z"/><path fill="#FDE4D5" d="M398.293 169.464l6.656-1.719 18.44-2.521-7.919 13.159-13.734 1.509z"/><path fill="#96C06B" d="M401.736 179.892l-35.693-5.481 17.215-17.037 22.112 10.39z"/></g><g><path opacity=".1" fill="#2B2B2B" d="M373.97 204.699l22.908-4.115 17.946 5.001-20.589 6.112z"/><path fill="#858686" d="M390.323 199.352l-8.625-15.141 13.859-3.352 11.738 3.074-7.652 16.252z"/><path fill="#54B08B" d="M389.488 190.045l-5.408-2.726 12.016-3.629 9.199 3.143-13.303 7.796z"/><path fill="#CFCECD" d="M393.383 191.573l3.349-4.374 10.563-3.266-2.644 21.808-9.181 3.334z"/><path fill="#A3A2A2" d="M396.732 187.199l-1.262 21.876-11.529-3.907-2.243-20.957z"/><g><path opacity=".1" fill="#2B2B2B" d="M450.359 186.329l25.708-5.043 19.434 4.737-22.648 6.723z"/><path fill="#858686" d="M470.118 179.128l-9.487-16.655 15.436-2.769 12.682 4.03-8.378 16.311z"/><path fill="#54B08B" d="M469.2 168.891l-4.888-4.016 11.517-2.5 11.198 4.338-15.073 7.22z"/><path fill="#CFCECD" d="M473.485 170.571l2.845-4.946 12.419-1.891-2.869 22.423-10.1 3.667z"/><path fill="#A3A2A2" d="M476.33 165.625l-.55 24.199-11.324-3.209-3.825-24.142z"/></g><g><path opacity=".1" fill="#2B2B2B" d="M422.871 203.527l52.027-11.001 33.666 8.862-49.274 12.835z"/><path fill="#A0CF7E" d="M490.66 185.039l.048-.608.564-7.185 5.509 4.431-.306 11.613-3.826 1.986z"/><path fill="#99C26C" d="M478.265 187.789l4.897-6.723 5.203 5.653-2.602 13.141-7.651-.611z"/><path fill="#C0DB8E" d="M483.162 181.066l3.519 16.96 5.777.115-1.186-20.895z"/><path fill="#A0CF7E" d="M476.123 179.996l-4.744 20.017 11.018.152.765-19.099z"/><path fill="#99C26C" d="M453.093 185.879l5.279-6.647 4.132 5.959.229 19.787-11.476-3.514z"/><path fill="#A0CF7E" d="M446.895 202.61l1.377-23.378h10.1l-1.148 20.857zM468.242 187.712l-8.263-5.5-1.607 7.792 6.045 13.752 5.202-2.979z"/><path fill="#C0DB8E" d="M478.112 196.422l-10.788-18.107-7.345 3.897 9.64 18.565z"/><path fill="#A0CF7E" d="M441.845 189.088l-8.722-2.292-.688 3.667 2.065 3.438 18.822 6.646z"/><path fill="#C0DB8E" d="M451.257 201.464l-18.134-14.668 8.034-3.667 16.067 16.96z"/><path fill="#3F8F6F" d="M465.258 202.381l-8.034-2.292-22.724-6.188-.918 8.709 24.79 6.8z"/><path fill="#54B08B" d="M457.224 200.089l39.251-9.626.841 10.466-38.944 8.481z"/></g></g><g><path opacity=".1" fill="#2B2B2B" d="M752.948 305.5l-55.081 16 101.817 18.667L872.125 316z"/><path fill="#36785D" d="M808.03 296.5l30.044-25-21.698-16-80.787 6.333 1.669 14.667z"/><path fill="#3F8F6F" d="M803.774 224.75L799.768 236l-3.005 22.75-13.77 1.75 17.025-38.5z"/><path fill="#B8C744" d="M805.026 210.5l-14.522 6.25 9.264 19.25 21.281-17.167z"/><path fill="#3F8F6F" d="M765.801 230l5.842 6.333 4.84 12.167-8.846 1.833z"/><path fill="#B8C744" d="M754.951 219.833L749.61 230.5l22.033 5.833.208-20.583z"/><path fill="#709D52" d="M742.182 245l34.301 3.5 11.851 46.333-23.118-5.083-27.54-36.5z"/><path fill="#D9E256" d="M748.316 207.5l1.294 23 22.241-14.75z"/><path fill="#709D52" d="M816.793 245.75l-22.534.25-8.512 39.5 21.782-1.25 16.024-29.5z"/><path fill="#99C26C" d="M773.979 261.25l22.784-2.5 5.926 18.083L780.239 289z"/><path fill="#54B08B" d="M771.977 288.167l30.712-11.334 36.053-10-12.018 48-30.044 12.334z"/><path fill="#3F8F6F" d="M731.583 266.833l11.35 52 53.747 8.334 6.009-50.334z"/><path fill="#99C26C" d="M737.425 234.25L718.898 277l57.585-28.5zM846.337 285.5l-11.267-47-40.811 7.5z"/><path fill="#A0CF7E" d="M768.221 255.75l-13.52 34.5 42.062-31.5z"/><path fill="#D9E256" d="M813.037 193.75l-22.533 23 30.545 2.083z"/></g><g><defs><path id="a" d="M128.702 13.333L45.998 61.595l-4.833 88.481 96.667 52.015 87-36.464 33.655-78.828-43.859-62.741z"/></defs><use xlink:href="#a" overflow="visible" fill="#ECECEB"/><clipPath id="b"><use xlink:href="#a" overflow="visible"/></clipPath><path clip-path="url(#b)" fill="#C4C4C3" d="M222.684 126.838l-11.444-4.826-32.593 7.329 32.35 2.055 23.861 8.312 29.218-15.551-31.653 5.094z"/><path clip-path="url(#b)" fill="#D1D1D1" d="M178.647 129.341l33.296-13.585 19.75 8.401 31.806-10.189-28.884 19.573-24.349-7.507zM111.003 38.291l9.768-.497 19.612 1.592-22.431-11.038-13.595 1.788-14.501 1.319 11.379 11.31 9.869-4.971"/><path clip-path="url(#b)" fill="#8F8F8F" d="M145.386 171.69l-4.655 53.624-47.259-.357-32.223-53.982z"/><path clip-path="url(#b)" fill="#A3A2A2" d="M168.657 176.337l-17.901 33.605-6.802 4.29L128.2 183.13l33.297-26.097z"/><path clip-path="url(#b)" fill="#CFCECD" d="M157.559 161.323l41.53-3.575-14.445 42.466-33.888 9.728z"/><path clip-path="url(#b)" fill="#3F8F6F" d="M29.743 145.235l54.778-8.58 88.97 5.542 25.598 15.551-71.963 23.237-83.778-5.72-25.062-17.517z"/><path clip-path="url(#b)" fill="#74C7A5" d="M139.657 161.233l-16.777-9.783-16.554-2.804-25.681-.132-39.48 1.562 1.825 27.513 75.454-7.508z"/><path clip-path="url(#b)" fill="#3F8F6F" d="M138.046 164.719L128.2 183.13l-85.21-5.541 56.21-14.836z"/><path clip-path="url(#b)" fill="#54B08B" d="M128.076 151.994l71.013 5.754L128.2 183.13l-29-20.377z"/><g clip-path="url(#b)"><path opacity=".1" fill="#2B2B2B" d="M75.38 158.737l48.403 3.574 44.016-5.417-43.087-4.486z"/><path fill="#377A5E" d="M120.234 140.004l28.238.039 7.221-3.689-8.515-35.629-26.711 3.194-4.359 9.171-.506 25.632z"/><path fill="#51AF89" d="M114.57 114.49l-3.904 34.982 12.214 1.978-4.807-40.166-3.892-4.081z"/><path fill="#C3927D" d="M164.367 67.695l1.462 3.474-1.535 1.365s-1.473-.56-1.561-.762c-.099-.227-.858-3.013-.775-3.064.061-.101 1.648-1.627 1.648-1.627l.761.614z"/><path fill="#F4CAB3" d="M159.097 72.449l2.415-4.731 5.985-3.206.855 1.484-4.456 3.101-.332 2.481z"/><path fill="#59763E" d="M137.554 95.174l9.672 5.363-4.554 16.032-13.7 3.284-6.403-7.112-1.81-3.906-5.585-6.743z"/><path fill="#72C5A3" d="M130.431 97.681l1.187 2.37-2.277 2.08-11.404-.039-2.705-1.166-.584-4.392 5.43-3.323 5.566-.35z"/><path fill="#343433" d="M113.247 92.745l-6.481-3.129.448-6.277 4.418.739z"/><path fill="#72C5A3" d="M130.431 97.681l4.418 1.243 5.916-4.061.545-9.561-8.213 2.993-8.018 5.635z"/><path fill="#96C06B" d="M135.88 106.853l-4.243-3.032-2.296-1.69 5.566-3.362 4.496.486z"/><path fill="#D7E058" d="M134.907 98.769l-1.109 4.469-4.457-1.107 1.09-4.45z"/><path fill="#738B57" d="M135.88 106.853l11.346-6.316-4.554 16.032-5.78 4.703-8.543 4.741-3.873-4.994-1.907-8.278z"/><path fill="#59763E" d="M137.651 115.383l2.588 3.809 8.096-1.204-1.109-17.451-11.346 6.316z"/><path fill="#738B57" d="M134.907 98.769l.973 8.084 12.222-6.821-1.927-2.215.078-5.713-4.943-6.802z"/><path fill="#51AF89" d="M117.937 102.092l-3.289-5.558-3.464 5.538 3.328 3.09z"/><path fill="#F4CAB3" d="M131.871 143.269l-3.795 8.725-1.479 1.496-3.717-2.04.584-11.446 7.707 1.633zM139.481 143.308l-.74 7.539 2.102 2.935 2.588-2.526 5.041-11.213-7.376.661z"/><path fill="#FDE4D5" d="M138.741 150.847l4.807.078 4.865 3.867-3.113.311-7.162-.058z"/><path fill="#F4CAB3" d="M145.3 155.103l4.009-2.351-.448 2.41z"/><path fill="#FDE4D5" d="M128.076 151.994l.02 4.003-8.758-.291 3.542-4.256z"/><path fill="#F4CAB3" d="M119.338 155.706l4.399-2.507 4.359 2.798z"/><path fill="#C3927D" d="M123.464 140.004l8.407 3.265 1.421-3.265zM139.481 143.308l8.991-3.265h-8.641z"/><path fill="#FDE4D5" d="M162.084 76.218l2.501-1.563 3.027-2.838-.571-.936-7.944 1.568-.606 3.647z"/><path fill="#5B753E" d="M141.31 85.302l4.865 12.515 8.574-11.204.203-8.306-5.516 2.219z"/><path fill="#96C06B" d="M159.097 72.449l-9.661 8.077 5.313 6.087 7.335-10.395z"/><path fill="#72C5A3" d="M146.175 97.817l1.012-1.555 14.723 39.282-4.055 11.742z"/><path fill="#D7E058" d="M127.629 121.019h-3.153l-1.012 18.985h9.828l2.861-6.218 3.172-2.546.914-12.048z"/><path fill="#B6C640" d="M148.335 117.988l-8.096 1.204-4.106 14.536.02.058 3.678 6.257h8.641z"/><path fill="#96C06B" d="M140.239 119.192l-2.588-3.809-1.323 4.373z"/><path fill="#FDE4D5" d="M133.72 86.099l-4.846 5.985 1.557 5.597-10.353-4.47-1.752-12.261-3.561-7.035-.448-9.114 9.867-5.732 9.069 1.03 2.024 1.982 6.928 20.695z"/><path fill="#F4CAB3" d="M112.721 78.54l7.357 14.671 10.353 4.47 1.187-4.139-5.468-4.742-7.435-19.413-1.634-1.787-2.433 6.101z"/><path fill="#848585" d="M121.654 58.641l10.957-7.656-4.418-.933-21.777 9.93 5.974 4.275z"/><path fill="#343433" d="M136.231 58.816l.097 2.41 5.877 4.586-3.464 6.607-3.464-10.338-1.907-1.963.817-1.671z"/><path fill="#FFF1E8" d="M134.109 75.081l-2.705 1.011-3.308-8.57 2.705-1.011z"/><path fill="#C3927D" d="M134.109 75.081l-.739 1.477-1.966-.466zM115.135 83.32l3.191-2.37-1.284 6.198z"/><path fill="#474749" d="M121.498 68.824l1.265.563 1.966-2.468h1.965v-.408l-2.16-.544zM130.275 65.093l.526 1.418 1.965-2.487 1.499.175v-.311l-1.985-.7z"/><path fill="#F4CAB3" d="M122.763 69.387l7.649 4.12-2.316-5.985-1.402-.603h-1.965zM132.397 70.612l1.868-6.413-1.499-.175-1.965 2.487z"/><path fill="#C3927D" d="M129.127 79.923l7.649-2.837-.276 3.62-3.739 1.44zM131.618 93.542l2.102-7.443-9.614 3.44z"/><path fill="#848585" d="M135.277 62.081l.954-3.265 5.974 6.996z"/><path fill="#505353" d="M138.877 64.024l-.136 8.395 1.012 3.051 2.452-9.658z"/><path fill="#F9D7C6" d="M115.135 83.32l3.191-2.37-3.639-7.307-2.608 3.556z"/><path fill="#C3927D" d="M113.5 77.626l1.167-1.496 1.538 3.343z"/><path fill="#E7BBA4" d="M122.471 65.112l11.794-4.081-.895-.913z"/><path fill="#343433" d="M103.808 78.015l8.485 8.414.954 6.316 6.831.466-7.999-16.012-2.374-3.148z"/><path fill="#474749" d="M103.808 78.015l11.327 5.305-1.888 9.425zM121.674 81.61l-5.605-11.445 1.012-2.565-1.265-5.442-9.4-2.176-2.608 18.033 8.271-.816 2.569-3.498 4.651 9.211z"/><path fill="#848585" d="M141.115 70.165l1.421 3.653-1.654 5.033-1.129-3.381z"/><path fill="#717275" d="M132.611 50.985l-5.002 8.919-10.528 7.696-10.665-7.618z"/><path fill="#848585" d="M132.611 50.985L117.081 67.6l21.115-9.697z"/><path fill="#B6C640" d="M140.765 109.204l-.973 1.866-1.888-.953.973-1.904zM142.205 115.364l-.973 1.905-1.888-.991.954-1.885z"/><path fill="#2A2B2A" d="M133.856 66.841c-.623 0-1.148.525-1.148 1.147 0 .641.525 1.146 1.148 1.146.642 0 1.148-.505 1.148-1.146 0-.622-.506-1.147-1.148-1.147zM126.364 69.543c-.642 0-1.148.525-1.148 1.146 0 .641.506 1.147 1.148 1.147.642 0 1.148-.505 1.148-1.147 0-.622-.506-1.146-1.148-1.146z"/><path fill="#A4B23C" d="M124.476 121.019l13.078 7.695 10.781-7.928v-2.798z"/><path fill="#FFF" d="M136.072 78.097l-5.068 1.923 1.16.743 3.818-1.451z"/><g><path fill="#858686" d="M104.941 98.971l1.955-5.104 5.907 5.644-1.442 2.564-.135 4.228-5.542-1.057z"/><path fill-rule="evenodd" clip-rule="evenodd" fill="#594165" d="M92.223 159.803l1.464-2.379-1.572-3.987-1.379 2.037.477 4.329zM110.452 157.708l.821-3.148-1.109-2.063-1.322-1.185-.728 2.448 1.154 3.948z"/><path fill-rule="evenodd" clip-rule="evenodd" fill="#ECECEB" d="M105.125 125.28l12.363 17.012-8.803-23.939-2.633 1.85z"/><path fill-rule="evenodd" clip-rule="evenodd" fill="#C4C4C4" d="M105.807 124.245l11.681 18.047-5.663 6.488-4.444-12.238z"/><path fill-rule="evenodd" clip-rule="evenodd" fill="#8F8F8F" d="M80.645 148.514l31.18.266-2.709-6.884-22.009-1.501z"/><path fill-rule="evenodd" clip-rule="evenodd" fill="#F5CAB3" d="M95.806 153.147l.374-9.894h-7.473l3.408 10.184 2.56 2.294zM112.221 150.52l-1.715-7.267h-7.063l5.399 8.059 2.578 3.119z"/><path fill-rule="evenodd" clip-rule="evenodd" fill="#C4937D" d="M110.506 143.253l-5.381-1.429-1.682 1.429 1.412 2.108zM95.858 151.756l-4.637-.988.559 1.67z"/><path fill-rule="evenodd" clip-rule="evenodd" fill="#785D88" d="M108.842 151.312l3.379-.792 7.391 7.188h-6.954zM92.115 153.437l3.691-.29 3.55 6.656h-7.133z"/><path fill="#8F8F8F" d="M103.312 106.323l2.495 17.922 3.572-4.536 2.027-7.962.158-5.691z"/><path fill="#9075A0" d="M101.585 93.851l-2.345 4.625 6.148 2.222 2.12-5.114z"/><path fill-rule="evenodd" clip-rule="evenodd" fill="#B3889D" d="M81.249 62.951l-5.236 8.769-9.531 9.097 5.472-17.026z"/><path fill-rule="evenodd" clip-rule="evenodd" fill="#96637C" d="M72.315 101.58l-7.318-7.104 8.096-1.046 2.725 1.531zM81.249 62.951L66.482 80.817l11.539-1.566z"/><path fill-rule="evenodd" clip-rule="evenodd" fill="#543042" d="M87.584 89.698L72.315 101.58l1.941-19.184z"/><path fill-rule="evenodd" clip-rule="evenodd" fill="#734C5F" d="M66.482 80.817l8.483-2.726 5.557 3.056 4.924 4.127 2.138 4.424z"/><path fill-rule="evenodd" clip-rule="evenodd" fill="#543042" d="M74.965 78.091l9.645 7.317-3.351-7.73z"/><path fill-rule="evenodd" clip-rule="evenodd" fill="#785D88" d="M88.707 122.3l11.391-.806 5.378 4.788 5.03 16.971H96.18z"/><path fill-rule="evenodd" clip-rule="evenodd" fill="#DDDDDC" d="M101.585 93.851l3.028 13.891 6.951-1.686-4.668-12.189z"/><path fill-rule="evenodd" clip-rule="evenodd" fill="#FFE6D6" d="M107.572 61.756l1.657 1.636 4.195 22.749-9.102 2.314-5.082 10.021-7.437-5.799-8.332-14.155-.145-17.778 18.627-4.998z"/><path fill-rule="evenodd" clip-rule="evenodd" fill="#F5CAB3" d="M99.24 98.476l1.612-3.039-.493-2.001-3.197-2.121-5.06-23.052-2.715-3.207-9.095 14.124 4.317 6.227 1.304 1.02 1.671 3.271 3.806 5.49 3.328 2.546z"/><path fill-rule="evenodd" clip-rule="evenodd" fill="#C4937D" d="M93.67 91.182l7.182 4.255 3.47-6.982z"/><path fill-rule="evenodd" clip-rule="evenodd" fill="#B3889D" d="M89.387 65.056l9.984-1.812 3.535-2.82-.672-5.495-19.804 5.177 2.468 5.44z"/><path fill-rule="evenodd" clip-rule="evenodd" fill="#C4937D" d="M84.61 85.408l1.886-1.883 1.088 6.173z"/><path fill-rule="evenodd" clip-rule="evenodd" fill="#FFE6D6" d="M84.61 85.408l3.049-3.044-4.668-7.374-2.699 4.19z"/><path fill-rule="evenodd" clip-rule="evenodd" fill="#C4937D" d="M83.222 77.48l1.794 3.109-3.581-1.308z"/><path fill-rule="evenodd" clip-rule="evenodd" fill="#FFF" d="M88.837 84.014l-1.313.944-2-2.789 1.382-.994z"/><path fill="#C4937D" d="M106.884 78.52l-1.163 1.572-2.031-.977z"/><path fill="#734C5F" d="M94.316 69.757l1.622-.031 1.249-1.118 2.263.371-2.911-1.214zM104.847 68.355l1.279-.206 1.122-1.774 1.751.287-2.233-1.057z"/><path fill="#F5CAB3" d="M109.893 75.074l-3.409 1.646-.627-1.585zM95.5 77.771l7.895.017.313-2.149zM94.518 72.544l6.479 1.009-.466-2.138zM109.223 69.793l-2.249 2.548-.508-2.054z"/><path fill-rule="evenodd" clip-rule="evenodd" fill="#96637C" d="M102.234 54.929l-2.863 8.315 8.201-1.488z"/><path fill-rule="evenodd" clip-rule="evenodd" fill="#734C5F" d="M82.991 74.99l3.915 6.185 2.504-2.642-4.041-7.238 4.018-6.239-6.957-4.95-7.465 17.985 3.665.749 1.662.34z"/><path fill-rule="evenodd" clip-rule="evenodd" fill="#ECECEB" d="M92.299 102.214l-1.438 3.667 6.034 4.243 2.016-1.456-2.995-5.501zM101.585 93.851l2.994 14.062 4.619-7.795z"/><path fill-rule="evenodd" clip-rule="evenodd" fill="#9075A0" d="M96.879 123.244l13.627 19.941-4.699-18.94-4.175-1.386z"/><path fill-rule="evenodd" clip-rule="evenodd" fill="#594165" d="M105.011 113.237l-.397-5.485-6.598 1.064-1.074 12.828-.063 1.6 8.928 1.001z"/><path fill="#594165" d="M82.991 74.99l-1.428 2.217-.412-3.242 11.667-2.536.708 3.127z"/><path fill="#FFF1E8" d="M106.884 78.52l-3.194.595-2.072-9.338 3.193-.595z"/><path fill="#594165" d="M106.298 75.75l8.024-1.508-1.431-6.567-20.073 3.754 1.487 6.568 8.745-1.653-1.13-5.184 3.201-.614 1.177 5.204zm-10.917.609l-.864-3.815 6.013-1.129.831 3.813-5.98 1.131zm17.254-3.233l-5.261.986-.864-3.815 5.293-.984.832 3.813z"/><path fill-rule="evenodd" clip-rule="evenodd" fill="#DDDDDC" d="M96.88 123.244l-1.021 28.512-15.214-3.242 9.824-27.02 1.97-1.065zM91.39 95.188l4.968 9.039 2.553 4.441-1.983 13.047-1.309-6.076-2.616 2.579-2.117.732-6.919-18.457z"/><path fill-rule="evenodd" clip-rule="evenodd" fill="#C4C4C4" d="M96.879 123.244l-16.234 25.27 8.483-27.343 4.257-3.374z"/><path fill-rule="evenodd" clip-rule="evenodd" fill="#8F8F8F" d="M88.002 111.252l1.126 9.919 7.751 2.073 2.036-14.571z"/><path fill-rule="evenodd" clip-rule="evenodd" fill="#ECECEB" d="M91.39 95.188l-2.726 7.582 10.251 5.903-4.14-8.559z"/><path fill-rule="evenodd" clip-rule="evenodd" fill="#9075A0" d="M99.24 98.476l-2.076 2.473-2.221.702-3.553-6.463z"/><path fill-rule="evenodd" clip-rule="evenodd" fill="#795D88" d="M99.249 98.48l-.009-.004-4.297 3.175 3.968 7.017 5.702-.926-1.853-8.096z"/><path fill-rule="evenodd" clip-rule="evenodd" fill="#2B2B2B" d="M100.403 73.143c-.077.468-.52.785-.989.708-.469-.077-.786-.519-.709-.987.077-.468.52-.785.988-.708.469.077.787.519.71.987zM110.312 71.221c-.077.468-.52.785-.988.708-.469-.077-.787-.519-.709-.987.077-.468.52-.785.988-.708.469.077.786.519.709.987z"/><path fill-rule="evenodd" clip-rule="evenodd" fill="#FFF" d="M106.867 81.797l-4.832.731 2.771 1.991 3.199-.641.855-2.474z"/><path fill="#9075A0" d="M102.148 82.427l-1.352.056 4.077 2.475 3.199-.551 1.464-3.419-.878.303-1.149 2.306-2.546.393z"/><path fill="#594165" d="M100.796 82.483l2.658-.635.698-.343 2.94-.484.721.152 1.723-.185-3.401 1.405z"/></g><path fill="#F4CAB3" d="M119.848 127.283l2.881 4.202-.328 1.96-3.146-1.227z"/><path fill="#F4CAB3" d="M119.482 131.467l2.13 2.272 2.052 4.037-2.462.148-5.44-3.395z"/><path fill="#96C06B" d="M118.592 117.595l1.256 9.688-1.659 2.945-2.619-1.694-4.591-8.808 2.014-6.383z"/><path fill="#738B57" d="M120.759 108.835l-2.167 8.76-7.613 2.131.205-17.654 6.753.02z"/><path fill="#FDE4D5" d="M115.57 128.534l.192 5.995 5.85-.79-1.764-6.456z"/><path fill="#FFE6D6" d="M117.24 115.436l2.636-3.239.946 4.656-1.825 3.171z"/><path fill="#F5CAB3" d="M115.754 113.276l4.122-1.079-.879 7.827-2.815-1.664zM109.649 114.716l1.442-3.464 4.009 1.799-.72 3.824-3.379.45z"/><path fill="#FFE6D6" d="M104.873 115.211l1.938-2.16 4.28-1.799-.09 6.073-4.055.585z"/><path fill="#A3A3A3" d="M93.475 114.806l.631-3.509 12.705 1.754.135 4.859-11.624.54z"/><path fill="#858686" d="M85.14 114.806l-1.173-14.313 10.139 10.804 1.216 7.153z"/></g><path clip-path="url(#b)" fill="#C4C4C3" d="M78.757 39.609l25.701 4.648 15.508-4.599 20.417-.272-24.244-6.315-12.487 3.853-18.271-4.733zM202.635 35.811l-.94 3.888-4.297.67 3.625 2.011-.537 3.754 3.424-2.548 3.692 1.609-2.148-3.754 2.685-2.681-3.491.537zM223.702 87.541l-2.001.709-1.542-1.712.155 2.19-1.825.848 2.124.781.352 2.103 1.048-2.039 1.97.415-1.249-1.393zM147.894 30.463l-1.737-1.22.505-2.245-1.698 1.393-1.749-.995.591 2.181-1.513 1.505 2.272-.327.801 1.844.415-1.823zM64.863 121.355l-1.779-1.158.427-2.262-1.649 1.452-1.783-.934.667 2.16-1.459 1.556 2.259-.406.866 1.815.35-1.837zM164.719 107.522l.024-1.406 1.423-.56-1.399-.412-.104-1.329-.979 1.136-1.391-.269 1.026 1.124-.715 1.126 1.156-.452zM59.929 83.263l-.863-1.112.759-1.325-1.349.552-.915-.971-.051 1.498-1.253.66 1.504.235.148 1.325.619-1.075zM218.587 155.301l.314-1.371 1.508-.254-1.284-.692.173-1.322-1.193.91-1.306-.549.772 1.31-.932.955 1.225-.204zM171.757 53.122l-.863-1.112.759-1.325-1.349.552-.915-.971-.051 1.498-1.253.66 1.504.235.148 1.325.619-1.075z"/><path fill="#ECECEB" d="M259.676 102.75l-6.635 4-.125 8.75 8.763 2.75 5.508-6.625-1.502-5.625zM273.476 112.845l-.082 4.777 4.542 2.937 4.316-3.674-1.662-5.051-3.44-1.061z"/></g></svg>